<?xml version="1.0" encoding="UTF-8" standalone="no"?>
<!DOCTYPE svg PUBLIC "-//W3C//DTD SVG 1.1//EN" "http://www.w3.org/Graphics/SVG/1.1/DTD/svg11.dtd">
<!-- Created with Vectornator (http://vectornator.io/) -->
<svg height="100%" stroke-miterlimit="10" style="fill-rule:nonzero;clip-rule:evenodd;stroke-linecap:round;stroke-linejoin:round;" version="1.1" viewBox="0 0 1024 1024" width="100%" xml:space="preserve" xmlns="http://www.w3.org/2000/svg" xmlns:vectornator="http://vectornator.io" xmlns:xlink="http://www.w3.org/1999/xlink">
<defs/>
<g id="Layer-1" vectornator:layerName="Layer 1">
<path d="M767.931 920.106L256.081 920.106C172.033 920.106 103.9 851.973 103.9 767.925L103.9 256.075C103.9 172.027 172.033 103.894 256.081 103.894L767.931 103.894C851.979 103.894 920.1 172.027 920.1 256.075L920.1 767.925C920.1 851.973 851.979 920.106 767.931 920.106Z" fill="none" opacity="1" stroke="#000000" stroke-linecap="round" stroke-linejoin="round" stroke-width="20"/>
<path d="M602.916 335.607L648.367 335.607L648.367 236.694L579.908 236.61C482.926 236.61 436.897 294.331 436.897 376.508L436.897 454.354L360.945 454.354L360.945 548.344L436.897 548.344L436.897 787.371L550.818 787.371L550.818 548.344L626.77 548.344L648.331 454.39L550.818 454.39L550.818 390.215C550.818 363.948 565.164 335.607 602.916 335.607" fill="#000000" fill-rule="nonzero" opacity="1" stroke="none"/>
</g>
</svg>
