<?xml version="1.0" encoding="UTF-8" standalone="no"?>
<!DOCTYPE svg PUBLIC "-//W3C//DTD SVG 1.1//EN" "http://www.w3.org/Graphics/SVG/1.1/DTD/svg11.dtd">
<!-- Created with Vectornator (http://vectornator.io/) -->
<svg height="100%" stroke-miterlimit="10" style="fill-rule:nonzero;clip-rule:evenodd;stroke-linecap:round;stroke-linejoin:round;" version="1.1" viewBox="0 0 1024 1024" width="100%" xml:space="preserve" xmlns="http://www.w3.org/2000/svg" xmlns:vectornator="http://vectornator.io" xmlns:xlink="http://www.w3.org/1999/xlink">
<defs/>
<g id="Layer-1" vectornator:layerName="Layer 1">
<g opacity="1">
<path d="M512.202 307.098C476.959 307.098 441.716 306.422 406.509 307.255C351.491 308.546 317.659 334.318 307.645 381.698C305.521 391.749 303.941 402.137 303.893 412.393C303.567 479.09 302.674 545.824 304.037 612.497C305.389 678.845 338.943 714.329 402.937 716.682C475.233 719.336 547.65 719.119 619.946 716.73C673.263 714.969 704.946 689.306 715.13 643.228C716.964 634.999 718.677 626.542 718.725 618.18C719.111 542.132 723.286 465.987 716.421 390.084C712.355 345.116 682.227 315.749 637.428 309.608C595.803 303.889 553.924 307.955 512.202 307.098M254.895 393.691C259.408 370.188 263.606 346.6 276.408 325.703C305.63 278.02 351.31 259.717 403.975 258.438C475.8 256.677 547.734 256.713 619.56 258.462C668.328 259.645 711.739 275.704 741.432 317.969C760.544 345.189 767.674 376.341 768.157 408.544C769.207 477.582 769.689 546.669 768.097 615.683C766.818 671.268 747.489 718.697 695.451 746.966C671.405 760.009 645.054 765.68 618.16 765.993C547.24 766.814 476.271 767.502 405.387 765.885C352.19 764.666 305.968 746.713 276.42 698.536C263.606 677.638 259.408 654.039 254.895 630.535L254.895 393.691Z" fill="#000000" fill-rule="nonzero" opacity="1" stroke="none"/>
<path d="M595.292 512.321C595.377 466.714 557.841 429.359 511.667 429.118C465.819 428.877 427.704 466.424 427.632 511.911C427.559 557.518 465.107 594.872 511.257 595.114C557.117 595.355 595.22 557.82 595.292 512.321M644.7 512.973C644.483 584.629 585.025 643.52 512.017 644.401C438.768 645.282 378.019 584.81 378.236 511.259C378.441 438.951 440.168 378.468 512.319 379.843C586.364 381.243 644.905 440.134 644.7 512.973" fill="#000000" fill-rule="nonzero" opacity="1" stroke="none"/>
<path d="M648.315 345.044C665.991 344.815 680.928 359.45 680.831 376.873C680.747 393.583 666.413 407.893 649.292 408.387C631.677 408.894 616.402 394.524 616.1 377.162C615.787 359.619 630.168 345.273 648.315 345.044" fill="#000000" fill-rule="nonzero" opacity="1" stroke="none"/>
<path d="M767.931 920.1L256.081 920.1C172.033 920.1 103.9 851.967 103.9 767.919L103.9 256.069C103.9 172.033 172.033 103.9 256.081 103.9L767.931 103.9C851.979 103.9 920.1 172.033 920.1 256.069L920.1 767.919C920.1 851.967 851.979 920.1 767.931 920.1Z" fill="none" opacity="1" stroke="#000000" stroke-linecap="round" stroke-linejoin="round" stroke-width="20"/>
</g>
</g>
</svg>
