<?xml version="1.0" encoding="UTF-8" standalone="no"?>
<!DOCTYPE svg PUBLIC "-//W3C//DTD SVG 1.1//EN" "http://www.w3.org/Graphics/SVG/1.1/DTD/svg11.dtd">
<!-- Created with Vectornator (http://vectornator.io/) -->
<svg height="100%" stroke-miterlimit="10" style="fill-rule:nonzero;clip-rule:evenodd;stroke-linecap:round;stroke-linejoin:round;" version="1.1" viewBox="0 0 110 110" width="100%" xml:space="preserve" xmlns="http://www.w3.org/2000/svg" xmlns:vectornator="http://vectornator.io" xmlns:xlink="http://www.w3.org/1999/xlink">
<defs/>
<g id="Layer-13" vectornator:layerName="Layer 13">
<g opacity="1">
<g opacity="0">
<g opacity="1">
<clipPath id="ClipPath">
<path d="M22.2903 74.3377L87.7098 74.3377L87.7098 74.3377L87.7098 87.3377L87.7098 87.3377L22.2903 87.3377L22.2903 87.3377L22.2903 74.3377L22.2903 74.3377Z"/>
</clipPath>
<g clip-path="url(#ClipPath)">
<path d="M40.26 76.7297C40.26 76.3937 40.276 75.8417 40.324 75.5937C40.348 75.4737 40.356 75.4337 40.356 75.4017C40.356 75.3457 40.308 75.3137 40.268 75.3137C40.236 75.3137 40.204 75.3297 40.188 75.3697C40.132 75.4737 40.108 75.5137 39.988 75.5137C39.9 75.5137 39.796 75.4817 39.668 75.4337C39.316 75.3137 39.06 75.2577 38.732 75.2577C37.764 75.2577 36.916 75.8817 36.916 76.9617C36.916 77.8417 37.54 78.2497 38.42 78.6977C39.38 79.1937 39.788 79.5057 39.788 80.2017C39.788 80.8897 39.316 81.2577 38.58 81.2577C37.636 81.2577 37.244 80.5217 36.908 79.3617C36.9 79.3297 36.868 79.3057 36.836 79.3057C36.796 79.3057 36.764 79.3377 36.764 79.3857C36.764 79.4177 36.764 79.4337 36.772 79.4897C36.796 79.6657 36.828 80.0097 36.828 80.3377C36.828 80.6737 36.804 80.9057 36.716 81.2177C36.692 81.2977 36.692 81.3217 36.692 81.3377C36.692 81.3857 36.724 81.4097 36.756 81.4097C36.788 81.4097 36.812 81.3937 36.828 81.3617C36.908 81.2177 37.012 81.2097 37.092 81.2097C37.244 81.2097 37.42 81.2497 37.612 81.2977C37.852 81.3537 38.14 81.4177 38.468 81.4177C39.868 81.4177 40.596 80.5137 40.596 79.5537C40.596 78.5937 40.036 78.2497 39.06 77.7857C38.316 77.4337 37.78 77.1617 37.78 76.4577C37.78 75.7857 38.196 75.4177 38.772 75.4177C39.5 75.4177 39.948 75.9937 40.108 76.9057C40.116 76.9617 40.148 76.9777 40.188 76.9777C40.228 76.9777 40.26 76.9457 40.26 76.8897L40.26 76.7297Z" fill="#000000" fill-rule="nonzero" opacity="1" stroke="none"/>
</g>
</g>
<g opacity="1">
<clipPath id="ClipPath_2">
<path d="M22.2903 74.3377L87.7098 74.3377L87.7098 74.3377L87.7098 87.3377L87.7098 87.3377L22.2903 87.3377L22.2903 87.3377L22.2903 74.3377L22.2903 74.3377Z"/>
</clipPath>
<g clip-path="url(#ClipPath_2)">
<path d="M46.964 78.1297C46.964 76.5457 45.772 75.2577 44.14 75.2577C42.804 75.2577 41.316 76.4497 41.316 78.5377C41.316 80.1457 42.508 81.4177 44.14 81.4177C45.476 81.4177 46.964 80.2417 46.964 78.1297ZM43.276 80.9057C42.684 80.3857 42.516 79.3057 42.516 78.3297C42.516 77.4897 42.684 76.3857 43.244 75.8097C43.468 75.5777 43.684 75.4177 44.14 75.4177C44.508 75.4177 44.692 75.5057 45.004 75.7697C45.596 76.2897 45.764 77.3617 45.764 78.3377C45.764 79.1777 45.596 80.2897 45.036 80.8657C44.812 81.0977 44.596 81.2577 44.14 81.2577C43.772 81.2577 43.588 81.1697 43.276 80.9057ZM46.988 81.7057C46.956 81.7057 46.932 81.7297 46.924 81.7777C46.868 82.1057 46.748 82.2417 46.468 82.2417C46.164 82.2417 45.764 82.1457 45.172 81.9617C44.588 81.7777 43.94 81.6097 43.476 81.6097C42.94 81.6097 42.42 81.9137 42.42 82.4337C42.42 82.7537 42.652 82.8497 42.764 82.8497C42.972 82.8497 43.068 82.6977 43.068 82.5617C43.068 82.4017 43.004 82.3297 42.86 82.2737C42.764 82.2337 42.7 82.2017 42.7 82.1057C42.7 82.0097 42.796 81.8977 42.996 81.8977C43.388 81.8977 43.82 82.0977 44.38 82.4737C44.852 82.7937 45.356 83.1057 45.916 83.1057C46.532 83.1057 46.988 82.8017 47.052 81.7857C47.052 81.7377 47.028 81.7057 46.988 81.7057Z" fill="#000000" fill-rule="nonzero" opacity="1" stroke="none"/>
</g>
</g>
<g opacity="1">
<clipPath id="ClipPath_3">
<path d="M22.2903 74.3377L87.7098 74.3377L87.7098 74.3377L87.7098 87.3377L87.7098 87.3377L22.2903 87.3377L22.2903 87.3377L22.2903 74.3377L22.2903 74.3377Z"/>
</clipPath>
<g clip-path="url(#ClipPath_3)">
<path d="M52.692 79.1377C52.692 80.4577 52.012 81.2177 50.868 81.2177C49.796 81.2177 49.284 80.4577 49.284 79.1377L49.284 76.0257C49.284 75.5457 49.308 75.5297 50.252 75.4977C50.3 75.4977 50.332 75.4657 50.332 75.4177C50.332 75.3777 50.308 75.3377 50.252 75.3377C50.22 75.3377 50.164 75.3377 49.996 75.3457C49.572 75.3697 49.084 75.3777 48.764 75.3777C48.444 75.3777 48.012 75.3617 47.7 75.3457C47.532 75.3377 47.476 75.3377 47.444 75.3377C47.388 75.3377 47.364 75.3777 47.364 75.4177C47.364 75.4657 47.396 75.4977 47.444 75.4977C48.228 75.5297 48.244 75.5457 48.244 76.0257L48.244 79.0417C48.244 80.5777 49.1 81.4177 50.796 81.4177C52.148 81.4177 52.892 80.5857 52.892 79.0737L52.892 76.7457C52.892 76.0257 52.908 75.5297 53.692 75.4977C53.748 75.4977 53.772 75.4497 53.772 75.4177C53.772 75.3777 53.748 75.3377 53.692 75.3377C53.652 75.3377 53.636 75.3377 53.396 75.3537C53.164 75.3697 52.996 75.3777 52.772 75.3777C52.428 75.3777 52.204 75.3697 51.868 75.3457C51.78 75.3377 51.724 75.3377 51.684 75.3377C51.636 75.3377 51.604 75.3777 51.604 75.4177C51.604 75.4577 51.636 75.4977 51.684 75.4977C52.628 75.5297 52.692 76.0257 52.692 76.7457L52.692 79.1377Z" fill="#000000" fill-rule="nonzero" opacity="1" stroke="none"/>
</g>
</g>
<g opacity="1">
<clipPath id="ClipPath_4">
<path d="M22.2903 74.3377L87.7098 74.3377L87.7098 74.3377L87.7098 87.3377L87.7098 87.3377L22.2903 87.3377L22.2903 87.3377L22.2903 74.3377L22.2903 74.3377Z"/>
</clipPath>
<g clip-path="url(#ClipPath_4)">
<path d="M56.052 76.0257C56.052 75.5457 56.068 75.5297 56.852 75.4977C56.9 75.4977 56.932 75.4657 56.932 75.4177C56.932 75.3777 56.908 75.3377 56.852 75.3377C56.82 75.3377 56.764 75.3377 56.596 75.3457C56.284 75.3617 55.852 75.3777 55.532 75.3777C55.212 75.3777 54.78 75.3617 54.468 75.3457C54.3 75.3377 54.244 75.3377 54.212 75.3377C54.156 75.3377 54.132 75.3777 54.132 75.4177C54.132 75.4657 54.164 75.4977 54.212 75.4977C54.996 75.5297 55.012 75.5457 55.012 76.0257L55.012 80.6497C55.012 81.1297 54.996 81.1457 54.212 81.1777C54.164 81.1777 54.132 81.2097 54.132 81.2577C54.132 81.2977 54.156 81.3377 54.212 81.3377C54.244 81.3377 54.3 81.3377 54.468 81.3297C54.78 81.3137 55.212 81.2977 55.532 81.2977C55.852 81.2977 56.284 81.3137 56.596 81.3297C56.764 81.3377 56.82 81.3377 56.852 81.3377C56.908 81.3377 56.932 81.2977 56.932 81.2577C56.932 81.2097 56.9 81.1777 56.852 81.1777C56.068 81.1457 56.052 81.1297 56.052 80.6497L56.052 76.0257Z" fill="#000000" fill-rule="nonzero" opacity="1" stroke="none"/>
</g>
</g>
<g opacity="1">
<clipPath id="ClipPath_5">
<path d="M22.2903 74.3377L87.7098 74.3377L87.7098 74.3377L87.7098 87.3377L87.7098 87.3377L22.2903 87.3377L22.2903 87.3377L22.2903 74.3377L22.2903 74.3377Z"/>
</clipPath>
<g clip-path="url(#ClipPath_5)">
<path d="M57.596 75.3377C57.524 75.3377 57.5 75.3777 57.5 75.4177C57.5 75.4577 57.524 75.4977 57.596 75.4977C58.308 75.4977 58.428 75.5617 58.428 76.1217L58.428 80.5537C58.428 81.1137 58.428 81.1377 57.596 81.1937C57.548 81.1937 57.516 81.2257 57.516 81.2657C57.516 81.3057 57.548 81.3377 57.596 81.3377C57.668 81.3377 57.748 81.3377 57.86 81.3297C58.076 81.3137 58.388 81.2977 58.908 81.2977C59.108 81.2977 59.364 81.2977 59.572 81.3137C59.788 81.3297 59.916 81.3377 60.228 81.3377C62.196 81.3377 63.54 79.9937 63.54 78.0817C63.54 76.3697 62.26 75.3377 60.204 75.3377C59.9 75.3377 59.644 75.3457 59.228 75.3617C58.964 75.3697 58.732 75.3697 58.644 75.3697C58.292 75.3697 58.124 75.3617 57.964 75.3537L57.596 75.3377ZM59.476 75.5217L59.884 75.5217C61.42 75.5217 62.34 76.5617 62.34 78.2817C62.34 79.7137 61.708 81.1777 60.38 81.1777C59.692 81.1777 59.476 81.0097 59.476 80.2577L59.476 75.5217Z" fill="#000000" fill-rule="nonzero" opacity="1" stroke="none"/>
</g>
</g>
<g opacity="1">
<clipPath id="ClipPath_6">
<path d="M22.2903 74.3377L87.7098 74.3377L87.7098 74.3377L87.7098 87.3377L87.7098 87.3377L22.2903 87.3377L22.2903 87.3377L22.2903 74.3377L22.2903 74.3377Z"/>
</clipPath>
<g clip-path="url(#ClipPath_6)">
<path d="M66.02 76.0257C66.02 75.5457 66.036 75.5297 66.82 75.4977C66.868 75.4977 66.9 75.4657 66.9 75.4177C66.9 75.3777 66.876 75.3377 66.82 75.3377C66.788 75.3377 66.732 75.3377 66.564 75.3457C66.252 75.3617 65.82 75.3777 65.5 75.3777C65.18 75.3777 64.748 75.3617 64.436 75.3457C64.268 75.3377 64.212 75.3377 64.18 75.3377C64.124 75.3377 64.1 75.3777 64.1 75.4177C64.1 75.4657 64.132 75.4977 64.18 75.4977C64.964 75.5297 64.98 75.5457 64.98 76.0257L64.98 80.6497C64.98 81.1297 64.964 81.1457 64.18 81.1777C64.132 81.1777 64.1 81.2097 64.1 81.2577C64.1 81.2977 64.124 81.3377 64.18 81.3377C64.212 81.3377 64.268 81.3377 64.436 81.3297C64.748 81.3137 65.18 81.2977 65.5 81.2977C65.82 81.2977 66.252 81.3137 66.564 81.3297C66.732 81.3377 66.788 81.3377 66.82 81.3377C66.876 81.3377 66.9 81.2977 66.9 81.2577C66.9 81.2097 66.868 81.1777 66.82 81.1777C66.036 81.1457 66.02 81.1297 66.02 80.6497L66.02 76.0257Z" fill="#000000" fill-rule="nonzero" opacity="1" stroke="none"/>
</g>
</g>
<g opacity="1">
<clipPath id="ClipPath_7">
<path d="M22.2903 74.3377L87.7098 74.3377L87.7098 74.3377L87.7098 87.3377L87.7098 87.3377L22.2903 87.3377L22.2903 87.3377L22.2903 74.3377L22.2903 74.3377Z"/>
</clipPath>
<g clip-path="url(#ClipPath_7)">
<path d="M70.404 75.2577C69.068 75.2577 67.58 76.4497 67.58 78.5377C67.58 80.1457 68.772 81.4177 70.404 81.4177C71.74 81.4177 73.228 80.2417 73.228 78.1297C73.228 76.5457 72.036 75.2577 70.404 75.2577ZM71.3 80.8657C71.076 81.0977 70.86 81.2577 70.404 81.2577C70.036 81.2577 69.852 81.1697 69.54 80.9057C68.948 80.3857 68.78 79.3057 68.78 78.3297C68.78 77.4897 68.948 76.3857 69.508 75.8097C69.732 75.5777 69.948 75.4177 70.404 75.4177C70.772 75.4177 70.956 75.5057 71.268 75.7697C71.86 76.2897 72.028 77.3617 72.028 78.3377C72.028 79.1777 71.86 80.2897 71.3 80.8657Z" fill="#000000" fill-rule="nonzero" opacity="1" stroke="none"/>
</g>
</g>
</g>
<g opacity="0">
<g opacity="1">
<clipPath id="ClipPath_8">
<path d="M9.76068 82.1853L94.4167 82.1853L94.4167 82.1853L94.4167 91.1853L94.4167 91.1853L9.76068 91.1853L9.76068 91.1853L9.76068 82.1853L9.76068 82.1853Z"/>
</clipPath>
<g clip-path="url(#ClipPath_8)">
<path d="M32.6757 86.8533C32.5317 86.8573 32.4047 86.8603 32.2947 86.8623C32.1847 86.8643 32.0797 86.8653 31.9797 86.8653C31.8797 86.8653 31.7787 86.8643 31.6767 86.8623C31.5747 86.8603 31.4617 86.8573 31.3377 86.8533C31.1697 87.0533 31.0247 87.2273 30.9027 87.3753C30.7807 87.5233 30.6697 87.6563 30.5697 87.7743C30.4697 87.8923 30.3757 88.0003 30.2877 88.0983C30.1997 88.1963 30.1057 88.2953 30.0057 88.3953C29.9457 88.4553 29.8927 88.4893 29.8467 88.4973C29.8007 88.5053 29.7737 88.4753 29.7657 88.4073C29.7577 88.3593 29.7707 88.2943 29.8047 88.2123C29.8387 88.1303 29.8827 88.0503 29.9367 87.9723C29.9907 87.8943 30.0497 87.8283 30.1137 87.7743C30.1777 87.7203 30.2377 87.6993 30.2937 87.7113L31.0017 86.8593C30.9137 86.8553 30.8407 86.8523 30.7827 86.8503C30.7247 86.8483 30.6757 86.8463 30.6357 86.8443C30.5957 86.8423 30.5607 86.8393 30.5307 86.8353C30.5007 86.8313 30.4717 86.8253 30.4437 86.8173C30.4077 86.8133 30.3837 86.7793 30.3717 86.7153C30.3677 86.6833 30.3777 86.6433 30.4017 86.5953C30.4257 86.5473 30.4577 86.4993 30.4977 86.4513C30.5377 86.4033 30.5837 86.3593 30.6357 86.3193C30.6877 86.2793 30.7417 86.2513 30.7977 86.2353C30.8417 86.2233 30.9017 86.2103 30.9777 86.1963C31.0537 86.1823 31.1557 86.1813 31.2837 86.1933C31.4117 86.2133 31.3057 86.2433 30.9657 86.2833C30.9457 86.2833 30.9227 86.2983 30.8967 86.3283C30.8707 86.3583 30.8457 86.3923 30.8217 86.4303C30.7977 86.4683 30.7767 86.5053 30.7587 86.5413C30.7407 86.5773 30.7317 86.6013 30.7317 86.6133C30.8117 86.6133 30.8937 86.6143 30.9777 86.6163C31.0617 86.6183 31.1357 86.6153 31.1997 86.6073C31.6197 86.1353 32.0367 85.7033 32.4507 85.3113C32.8647 84.9193 33.3017 84.5913 33.7617 84.3273C33.9097 84.4833 33.9397 84.6593 33.8517 84.8553C33.7837 85.0193 33.7177 85.1723 33.6537 85.3143C33.5897 85.4563 33.5257 85.5953 33.4617 85.7313C33.3977 85.8673 33.3337 86.0043 33.2697 86.1423C33.2057 86.2803 33.1417 86.4273 33.0777 86.5833C33.2017 86.5833 33.3057 86.5813 33.3897 86.5773C33.4737 86.5733 33.5257 86.5733 33.5457 86.5773C33.5737 86.5813 33.5877 86.6013 33.5877 86.6373C33.5877 86.6453 33.5877 86.6513 33.5877 86.6553C33.5877 86.6593 33.5847 86.6663 33.5787 86.6763C33.5727 86.6863 33.5617 86.7003 33.5457 86.7183C33.5297 86.7363 33.5057 86.7633 33.4737 86.7993L32.9637 86.8353C32.8757 87.0513 32.8077 87.2323 32.7597 87.3783C32.7117 87.5243 32.6717 87.6493 32.6397 87.7533C32.6077 87.8573 32.6067 87.9183 32.6367 87.9363C32.6667 87.9543 32.7217 87.9413 32.8017 87.8973C32.8657 87.8613 32.9177 87.8313 32.9577 87.8073C32.9977 87.7833 33.0357 87.7593 33.0717 87.7353C33.1077 87.7113 33.1477 87.6853 33.1917 87.6573C33.2357 87.6293 33.2917 87.5933 33.3597 87.5493L33.3537 87.7053C33.2817 87.7653 33.2187 87.8193 33.1647 87.8673C33.1107 87.9153 33.0637 87.9573 33.0237 87.9933C32.8837 88.1133 32.7747 88.1943 32.6967 88.2363C32.6187 88.2783 32.5477 88.2993 32.4837 88.2993C32.4157 88.2993 32.3677 88.2743 32.3397 88.2243C32.3117 88.1743 32.3077 88.0853 32.3277 87.9573C32.3317 87.9013 32.3577 87.7873 32.4057 87.6153C32.4537 87.4433 32.5457 87.1893 32.6817 86.8533L32.6757 86.8533ZM32.8017 86.5893C32.9817 86.2253 33.1487 85.8713 33.3027 85.5273C33.4567 85.1833 33.5857 84.8833 33.6897 84.6273C33.5377 84.7193 33.3647 84.8443 33.1707 85.0023C32.9767 85.1603 32.7817 85.3313 32.5857 85.5153C32.3897 85.6993 32.2017 85.8873 32.0217 86.0793C31.8417 86.2713 31.6897 86.4473 31.5657 86.6073L32.8017 86.5893Z" fill="#000000" fill-rule="nonzero" opacity="1" stroke="none"/>
</g>
</g>
<g opacity="1">
<clipPath id="ClipPath_9">
<path d="M9.76068 82.1853L94.4167 82.1853L94.4167 82.1853L94.4167 91.1853L94.4167 91.1853L9.76068 91.1853L9.76068 91.1853L9.76068 82.1853L9.76068 82.1853Z"/>
</clipPath>
<g clip-path="url(#ClipPath_9)">
<path d="M35.9757 87.7713C36.0597 87.6513 36.1457 87.5223 36.2337 87.3843C36.3217 87.2463 36.3977 87.1333 36.4617 87.0453C36.6577 86.7693 36.8027 86.5693 36.8967 86.4453C36.9907 86.3213 37.0537 86.2593 37.0857 86.2593C37.1257 86.2593 37.1727 86.2893 37.2267 86.3493C37.2807 86.4093 37.3197 86.4713 37.3437 86.5353C37.3477 86.5553 37.3427 86.5873 37.3287 86.6313C37.3147 86.6753 37.2877 86.7313 37.2477 86.7993C37.2277 86.8353 37.2077 86.8823 37.1877 86.9403C37.1677 86.9983 37.1487 87.0603 37.1307 87.1263C37.1127 87.1923 37.0947 87.2593 37.0767 87.3273C37.0587 87.3953 37.0417 87.4593 37.0257 87.5193C36.9817 87.7073 36.9837 87.8383 37.0317 87.9123C37.0797 87.9863 37.1537 87.9733 37.2537 87.8733C37.3497 87.7853 37.4437 87.6923 37.5357 87.5943C37.6277 87.4963 37.7277 87.3813 37.8357 87.2493L37.9137 87.4593C37.7377 87.7113 37.5887 87.8993 37.4667 88.0233C37.3447 88.1473 37.2257 88.2133 37.1097 88.2213C37.0257 88.2213 36.9507 88.1823 36.8847 88.1043C36.8187 88.0263 36.7817 87.9173 36.7737 87.7773C36.7737 87.7533 36.7787 87.7053 36.7887 87.6333C36.7987 87.5613 36.8147 87.4743 36.8367 87.3723C36.8587 87.2703 36.8887 87.1543 36.9267 87.0243C36.9647 86.8943 37.0117 86.7593 37.0677 86.6193C36.9997 86.7033 36.9287 86.7943 36.8547 86.8923C36.7807 86.9903 36.7107 87.0873 36.6447 87.1833C36.5787 87.2793 36.5187 87.3693 36.4647 87.4533C36.4107 87.5373 36.3697 87.6073 36.3417 87.6633C36.3137 87.7193 36.2847 87.7743 36.2547 87.8283C36.2247 87.8823 36.1977 87.9273 36.1737 87.9633C36.1457 88.0273 36.1187 88.0733 36.0927 88.1013C36.0667 88.1293 36.0297 88.1433 35.9817 88.1433C35.9337 88.1433 35.8967 88.1253 35.8707 88.0893C35.8447 88.0533 35.8197 87.9993 35.7957 87.9273C35.7877 87.8993 35.7867 87.8473 35.7927 87.7713C35.7987 87.6953 35.8127 87.6013 35.8347 87.4893C35.8567 87.3773 35.8847 87.2533 35.9187 87.1173C35.9527 86.9813 35.9937 86.8393 36.0417 86.6913C36.0857 86.6033 36.0997 86.5413 36.0837 86.5053C36.0677 86.4693 36.0417 86.4493 36.0057 86.4453C35.9617 86.4413 35.8817 86.5233 35.7657 86.6913C35.7057 86.7793 35.6467 86.8783 35.5887 86.9883C35.5307 87.0983 35.4777 87.2073 35.4297 87.3153C35.3817 87.4233 35.3407 87.5223 35.3067 87.6123C35.2727 87.7023 35.2497 87.7693 35.2377 87.8133C35.2177 87.8773 35.1987 87.9283 35.1807 87.9663C35.1627 88.0043 35.1497 88.0313 35.1417 88.0473C35.1217 88.1033 35.0797 88.1203 35.0157 88.0983C34.9517 88.0763 34.8777 88.0153 34.7937 87.9153C34.7417 87.8553 34.6947 87.7893 34.6527 87.7173C34.6107 87.6453 34.5757 87.5673 34.5477 87.4833C34.5277 87.4273 34.5127 87.3763 34.5027 87.3303C34.4927 87.2843 34.4877 87.2383 34.4877 87.1923C34.4877 87.1463 34.4927 87.0963 34.5027 87.0423C34.5127 86.9883 34.5277 86.9213 34.5477 86.8413C34.6037 86.6493 34.6637 86.5113 34.7277 86.4273C34.7917 86.3433 34.8657 86.3053 34.9497 86.3133C35.0417 86.3213 35.0957 86.3423 35.1117 86.3763C35.1277 86.4103 35.1057 86.4633 35.0457 86.5353C35.0097 86.5793 34.9767 86.6263 34.9467 86.6763C34.9167 86.7263 34.8797 86.7773 34.8357 86.8293C34.8157 86.8573 34.7967 86.8953 34.7787 86.9433C34.7607 86.9913 34.7477 87.0373 34.7397 87.0813C34.7037 87.2853 34.7097 87.4433 34.7577 87.5553C34.8057 87.6673 34.8637 87.7213 34.9317 87.7173C34.9397 87.7173 34.9517 87.7123 34.9677 87.7023C34.9837 87.6923 35.0027 87.6703 35.0247 87.6363C35.0467 87.6023 35.0727 87.5533 35.1027 87.4893C35.1327 87.4253 35.1677 87.3393 35.2077 87.2313C35.2477 87.1273 35.2987 87.0163 35.3607 86.8983C35.4227 86.7803 35.4907 86.6693 35.5647 86.5653C35.6387 86.4613 35.7157 86.3743 35.7957 86.3043C35.8757 86.2343 35.9557 86.1953 36.0357 86.1873C36.1077 86.1793 36.1737 86.2143 36.2337 86.2923C36.2937 86.3703 36.3137 86.4733 36.2937 86.6013C36.2737 86.7373 36.2387 86.9063 36.1887 87.1083C36.1387 87.3103 36.0677 87.5313 35.9757 87.7713Z" fill="#000000" fill-rule="nonzero" opacity="1" stroke="none"/>
</g>
</g>
<g opacity="1">
<clipPath id="ClipPath_10">
<path d="M9.76068 82.1853L94.4167 82.1853L94.4167 82.1853L94.4167 91.1853L94.4167 91.1853L9.76068 91.1853L9.76068 91.1853L9.76068 82.1853L9.76068 82.1853Z"/>
</clipPath>
<g clip-path="url(#ClipPath_10)">
<path d="M38.1537 86.7393C38.4657 86.4393 38.7377 86.2323 38.9697 86.1183C39.2017 86.0043 39.3957 85.9453 39.5517 85.9413C39.6197 85.9373 39.6737 85.9513 39.7137 85.9833C39.7537 86.0153 39.7577 86.0473 39.7257 86.0793C39.7057 86.0993 39.6827 86.1133 39.6567 86.1213C39.6307 86.1293 39.5977 86.1393 39.5577 86.1513C39.6417 86.2473 39.6937 86.3553 39.7137 86.4753C39.7217 86.5273 39.7247 86.5743 39.7227 86.6163C39.7207 86.6583 39.7057 86.6993 39.6777 86.7393C39.6377 86.8033 39.5987 86.8793 39.5607 86.9673C39.5227 87.0553 39.4897 87.1483 39.4617 87.2463C39.4337 87.3443 39.4117 87.4443 39.3957 87.5463C39.3797 87.6483 39.3717 87.7453 39.3717 87.8373C39.3717 87.9093 39.3837 87.9583 39.4077 87.9843C39.4317 88.0103 39.4797 88.0033 39.5517 87.9633C39.6197 87.9233 39.7157 87.8473 39.8397 87.7353C39.9637 87.6233 40.1217 87.4913 40.3137 87.3393L40.3377 87.5193C39.9457 88.0193 39.6417 88.2693 39.4257 88.2693C39.3577 88.2693 39.3037 88.2493 39.2637 88.2093C39.2237 88.1693 39.1937 88.0913 39.1737 87.9753C39.1577 87.8953 39.1547 87.7973 39.1647 87.6813C39.1747 87.5653 39.2157 87.4113 39.2877 87.2193C39.1837 87.3673 39.0867 87.5073 38.9967 87.6393C38.9067 87.7713 38.8097 87.8873 38.7057 87.9873C38.5937 88.0993 38.5037 88.1643 38.4357 88.1823C38.3677 88.2003 38.2937 88.1613 38.2137 88.0653C37.9977 87.8133 37.8827 87.5803 37.8687 87.3663C37.8547 87.1523 37.9497 86.9433 38.1537 86.7393ZM39.5157 86.1633C39.3357 86.1753 39.1617 86.2303 38.9937 86.3283C38.8257 86.4263 38.6357 86.5773 38.4237 86.7813C38.0957 87.0853 38.0077 87.3713 38.1597 87.6393C38.2357 87.7753 38.3017 87.8523 38.3577 87.8703C38.4137 87.8883 38.4717 87.8693 38.5317 87.8133C38.5917 87.7613 38.6437 87.7103 38.6877 87.6603C38.7317 87.6103 38.7737 87.5603 38.8137 87.5103C38.8537 87.4603 38.8947 87.4063 38.9367 87.3483C38.9787 87.2903 39.0257 87.2253 39.0777 87.1533C39.1697 87.0213 39.2447 86.9103 39.3027 86.8203C39.3607 86.7303 39.4057 86.6493 39.4377 86.5773C39.4697 86.5053 39.4907 86.4373 39.5007 86.3733C39.5107 86.3093 39.5137 86.2373 39.5097 86.1573L39.5157 86.1633Z" fill="#000000" fill-rule="nonzero" opacity="1" stroke="none"/>
</g>
</g>
<g opacity="1">
<clipPath id="ClipPath_11">
<path d="M9.76068 82.1853L94.4167 82.1853L94.4167 82.1853L94.4167 91.1853L94.4167 91.1853L9.76068 91.1853L9.76068 91.1853L9.76068 82.1853L9.76068 82.1853Z"/>
</clipPath>
<g clip-path="url(#ClipPath_11)">
<path d="M40.4637 87.3033C40.4877 87.2753 40.5167 87.2313 40.5507 87.1713C40.5847 87.1113 40.6197 87.0443 40.6557 86.9703C40.6917 86.8963 40.7277 86.8203 40.7637 86.7423C40.7997 86.6643 40.8297 86.5953 40.8537 86.5353C40.7937 86.5273 40.7387 86.5153 40.6887 86.4993C40.6387 86.4833 40.6237 86.4613 40.6437 86.4333C40.6637 86.4013 40.6827 86.3683 40.7007 86.3343C40.7187 86.3003 40.7657 86.2573 40.8417 86.2053C40.8857 86.1733 40.9247 86.1463 40.9587 86.1243C40.9927 86.1023 41.0257 86.0913 41.0577 86.0913C41.1257 86.0913 41.1617 86.1173 41.1657 86.1693C41.1737 86.1893 41.1697 86.2033 41.1537 86.2113C41.1457 86.2193 41.1397 86.2353 41.1357 86.2593C41.1437 86.2793 41.1617 86.2893 41.1897 86.2893C41.3057 86.2893 41.4237 86.2693 41.5437 86.2293C41.6637 86.1893 41.7637 86.1693 41.8437 86.1693C41.8837 86.1693 41.9197 86.2113 41.9517 86.2953C41.9837 86.3913 42.0097 86.4703 42.0297 86.5323C42.0497 86.5943 42.0617 86.6413 42.0657 86.6733C42.0697 86.6973 42.0607 86.7223 42.0387 86.7483C42.0167 86.7743 41.9557 86.8233 41.8557 86.8953C41.7477 86.9673 41.6297 87.0553 41.5017 87.1593C41.3737 87.2633 41.2417 87.3773 41.1057 87.5013C41.2097 87.5453 41.2957 87.5953 41.3637 87.6513C41.4317 87.7073 41.4937 87.8033 41.5497 87.9393L42.3057 87.2553L42.3357 87.4533L41.5797 88.1733C41.5917 88.4493 41.5317 88.7003 41.3997 88.9263C41.2677 89.1523 41.0917 89.3493 40.8717 89.5173C40.7557 89.6093 40.6637 89.6583 40.5957 89.6643C40.5277 89.6703 40.4717 89.6493 40.4277 89.6013C40.4037 89.5653 40.3857 89.5173 40.3737 89.4573C40.3617 89.3973 40.3597 89.3313 40.3677 89.2593C40.3757 89.1873 40.3957 89.1103 40.4277 89.0283C40.4597 88.9463 40.5077 88.8653 40.5717 88.7853C40.6237 88.7213 40.6737 88.6633 40.7217 88.6113C40.7697 88.5593 40.8227 88.5083 40.8807 88.4583C40.9387 88.4083 41.0057 88.3533 41.0817 88.2933C41.1577 88.2333 41.2477 88.1633 41.3517 88.0833C41.3197 87.9673 41.2817 87.8823 41.2377 87.8283C41.1937 87.7743 41.1137 87.7293 40.9977 87.6933C40.8897 87.6573 40.8297 87.6053 40.8177 87.5373C40.8137 87.5173 40.8257 87.4863 40.8537 87.4443C40.8817 87.4023 40.9317 87.3483 41.0037 87.2823C41.0757 87.2163 41.1727 87.1353 41.2947 87.0393C41.4167 86.9433 41.5677 86.8313 41.7477 86.7033C41.8077 86.6353 41.8287 86.5703 41.8107 86.5083C41.7927 86.4463 41.7557 86.4173 41.6997 86.4213C41.5917 86.4333 41.4837 86.4513 41.3757 86.4753C41.2677 86.4993 41.1557 86.5193 41.0397 86.5353C41.0117 86.6233 40.9727 86.7183 40.9227 86.8203C40.8727 86.9223 40.8207 87.0203 40.7667 87.1143C40.7127 87.2083 40.6607 87.2913 40.6107 87.3633C40.5607 87.4353 40.5217 87.4873 40.4937 87.5193L40.4637 87.3033ZM41.3637 88.3533C41.2437 88.4493 41.1267 88.5493 41.0127 88.6533C40.8987 88.7573 40.7917 88.8733 40.6917 89.0013C40.6557 89.0533 40.6297 89.1013 40.6137 89.1453C40.5977 89.1893 40.5917 89.2193 40.5957 89.2353C40.5997 89.2553 40.6077 89.2783 40.6197 89.3043C40.6317 89.3303 40.6477 89.3413 40.6677 89.3373C40.7197 89.3293 40.7827 89.3003 40.8567 89.2503C40.9307 89.2003 41.0017 89.1323 41.0697 89.0463C41.1377 88.9603 41.1997 88.8583 41.2557 88.7403C41.3117 88.6223 41.3477 88.4933 41.3637 88.3533Z" fill="#000000" fill-rule="nonzero" opacity="1" stroke="none"/>
</g>
</g>
<g opacity="1">
<clipPath id="ClipPath_12">
<path d="M9.76068 82.1853L94.4167 82.1853L94.4167 82.1853L94.4167 91.1853L94.4167 91.1853L9.76068 91.1853L9.76068 91.1853L9.76068 82.1853L9.76068 82.1853Z"/>
</clipPath>
<g clip-path="url(#ClipPath_12)">
<path d="M43.5657 85.7793C43.5657 85.6953 43.5877 85.6073 43.6317 85.5153C43.6757 85.4233 43.7377 85.3633 43.8177 85.3353C43.8337 85.3313 43.8537 85.3403 43.8777 85.3623C43.9017 85.3843 43.9217 85.4163 43.9377 85.4583C43.9537 85.5003 43.9597 85.5513 43.9557 85.6113C43.9517 85.6713 43.9297 85.7353 43.8897 85.8033C43.8537 85.8593 43.8167 85.8983 43.7787 85.9203C43.7407 85.9423 43.7057 85.9503 43.6737 85.9443C43.6417 85.9383 43.6157 85.9213 43.5957 85.8933C43.5757 85.8653 43.5657 85.8273 43.5657 85.7793ZM44.0637 87.4773C43.8997 87.7333 43.7497 87.9173 43.6137 88.0293C43.4417 88.1733 43.2897 88.2343 43.1577 88.2123C43.0257 88.1903 42.9137 88.1073 42.8217 87.9633C42.7177 87.7913 42.6537 87.6103 42.6297 87.4203C42.6057 87.2303 42.6437 87.0273 42.7437 86.8113C42.9557 86.3833 43.1797 86.1673 43.4157 86.1633C43.5437 86.1633 43.5817 86.2013 43.5297 86.2773C43.4697 86.3533 43.4057 86.4293 43.3377 86.5053C43.2697 86.5813 43.1897 86.6593 43.0977 86.7393C43.0137 86.8113 42.9587 86.8913 42.9327 86.9793C42.9067 87.0673 42.8897 87.1853 42.8817 87.3333C42.8777 87.4173 42.8837 87.4973 42.8997 87.5733C42.9157 87.6493 42.9397 87.7163 42.9717 87.7743C43.0037 87.8323 43.0417 87.8763 43.0857 87.9063C43.1297 87.9363 43.1757 87.9453 43.2237 87.9333C43.2757 87.9213 43.3297 87.9033 43.3857 87.8793C43.4417 87.8553 43.5007 87.8183 43.5627 87.7683C43.6247 87.7183 43.6947 87.6523 43.7727 87.5703C43.8507 87.4883 43.9377 87.3853 44.0337 87.2613L44.0637 87.4773Z" fill="#000000" fill-rule="nonzero" opacity="1" stroke="none"/>
</g>
</g>
<g opacity="1">
<clipPath id="ClipPath_13">
<path d="M9.76068 82.1853L94.4167 82.1853L94.4167 82.1853L94.4167 91.1853L94.4167 91.1853L9.76068 91.1853L9.76068 91.1853L9.76068 82.1853L9.76068 82.1853Z"/>
</clipPath>
<g clip-path="url(#ClipPath_13)">
<path d="M46.0497 86.6253C45.9217 86.7973 45.8257 86.9663 45.7617 87.1323C45.6977 87.2983 45.6477 87.4833 45.6117 87.6873C45.5917 87.7953 45.5987 87.8683 45.6327 87.9063C45.6667 87.9443 45.7177 87.9333 45.7857 87.8733C45.8897 87.7933 45.9867 87.7033 46.0767 87.6033C46.1667 87.5033 46.2877 87.3853 46.4397 87.2493L46.4877 87.4533C46.3797 87.6013 46.2837 87.7243 46.1997 87.8223C46.1157 87.9203 46.0397 87.9983 45.9717 88.0563C45.9037 88.1143 45.8447 88.1563 45.7947 88.1823C45.7447 88.2083 45.7017 88.2233 45.6657 88.2273C45.6097 88.2353 45.5567 88.2143 45.5067 88.1643C45.4567 88.1143 45.4217 88.0373 45.4017 87.9333C45.3857 87.8533 45.3847 87.7513 45.3987 87.6273C45.4127 87.5033 45.4577 87.3613 45.5337 87.2013C45.5937 87.0653 45.6517 86.9383 45.7077 86.8203C45.7637 86.7023 45.8257 86.5613 45.8937 86.3973C45.8457 86.4213 45.7807 86.4743 45.6987 86.5563C45.6167 86.6383 45.5287 86.7403 45.4347 86.8623C45.3407 86.9843 45.2447 87.1243 45.1467 87.2823C45.0487 87.4403 44.9617 87.6093 44.8857 87.7893C44.8417 87.9053 44.8017 87.9853 44.7657 88.0293C44.7297 88.0733 44.6897 88.0933 44.6457 88.0893C44.5897 88.0853 44.5357 88.0493 44.4837 87.9813C44.4317 87.9133 44.3857 87.8323 44.3457 87.7383C44.3057 87.6443 44.2737 87.5463 44.2497 87.4443C44.2257 87.3423 44.2157 87.2553 44.2197 87.1833C44.2357 87.1113 44.2657 87.0253 44.3097 86.9253C44.3657 86.8013 44.4147 86.7003 44.4567 86.6223C44.4987 86.5443 44.5377 86.4843 44.5737 86.4423C44.6097 86.4003 44.6457 86.3713 44.6817 86.3553C44.7177 86.3393 44.7577 86.3293 44.8017 86.3253C44.8937 86.3173 44.9367 86.3343 44.9307 86.3763C44.9247 86.4183 44.8877 86.4773 44.8197 86.5533C44.6917 86.7013 44.5977 86.8343 44.5377 86.9523C44.4777 87.0703 44.4557 87.2053 44.4717 87.3573C44.4917 87.5373 44.5267 87.6493 44.5767 87.6933C44.6267 87.7373 44.6757 87.7113 44.7237 87.6153C44.7837 87.4953 44.8377 87.3893 44.8857 87.2973C44.9337 87.2053 44.9817 87.1223 45.0297 87.0483C45.0777 86.9743 45.1267 86.9043 45.1767 86.8383C45.2267 86.7723 45.2837 86.7033 45.3477 86.6313C45.4597 86.4993 45.5687 86.3873 45.6747 86.2953C45.7807 86.2033 45.8697 86.1533 45.9417 86.1453C45.9577 86.1453 45.9767 86.1573 45.9987 86.1813C46.0207 86.2053 46.0407 86.2323 46.0587 86.2623C46.0767 86.2923 46.0927 86.3233 46.1067 86.3553C46.1207 86.3873 46.1297 86.4113 46.1337 86.4273C46.1417 86.4793 46.1137 86.5453 46.0497 86.6253Z" fill="#000000" fill-rule="nonzero" opacity="1" stroke="none"/>
</g>
</g>
<g opacity="1">
<clipPath id="ClipPath_14">
<path d="M9.76068 82.1853L94.4167 82.1853L94.4167 82.1853L94.4167 91.1853L94.4167 91.1853L9.76068 91.1853L9.76068 91.1853L9.76068 82.1853L9.76068 82.1853Z"/>
</clipPath>
<g clip-path="url(#ClipPath_14)">
<path d="M48.1377 88.2573C48.0577 88.5133 47.9777 88.7173 47.8977 88.8693C47.8177 89.0213 47.7377 89.1553 47.6577 89.2713C47.4017 89.6793 47.2657 89.7753 47.2497 89.5593C47.2457 89.4833 47.2537 89.4083 47.2737 89.3343C47.2937 89.2603 47.3277 89.1693 47.3757 89.0613C47.4317 88.9293 47.5107 88.7803 47.6127 88.6143C47.7147 88.4483 47.8497 88.2393 48.0177 87.9873C48.0497 87.7833 48.0757 87.5873 48.0957 87.3993C48.1157 87.2113 48.1317 87.0633 48.1437 86.9553C47.9397 87.3673 47.7497 87.6603 47.5737 87.8343C47.3977 88.0083 47.2437 88.0993 47.1117 88.1073C47.0157 88.1073 46.8957 88.0273 46.7517 87.8673C46.6317 87.7153 46.5447 87.5543 46.4907 87.3843C46.4367 87.2143 46.4537 87.0373 46.5417 86.8533C46.5977 86.7453 46.6707 86.6383 46.7607 86.5323C46.8507 86.4263 46.9477 86.3313 47.0517 86.2473C47.1557 86.1633 47.2617 86.0963 47.3697 86.0463C47.4777 85.9963 47.5777 85.9713 47.6697 85.9713C47.8097 85.9713 47.8697 86.0043 47.8497 86.0703C47.8297 86.1363 47.7097 86.2213 47.4897 86.3253C47.4177 86.3573 47.3447 86.3973 47.2707 86.4453C47.1967 86.4933 47.1267 86.5463 47.0607 86.6043C46.9947 86.6623 46.9347 86.7243 46.8807 86.7903C46.8267 86.8563 46.7857 86.9213 46.7577 86.9853C46.7137 87.0893 46.7017 87.1983 46.7217 87.3123C46.7417 87.4263 46.7797 87.5253 46.8357 87.6093C46.8917 87.6933 46.9587 87.7523 47.0367 87.7863C47.1147 87.8203 47.1917 87.8093 47.2677 87.7533C47.3877 87.6613 47.5037 87.5453 47.6157 87.4053C47.7277 87.2653 47.8117 87.0993 47.8677 86.9073C47.9037 86.8233 47.9407 86.7523 47.9787 86.6943C48.0167 86.6363 48.0517 86.5873 48.0837 86.5473C48.1237 86.5073 48.1627 86.4793 48.2007 86.4633C48.2387 86.4473 48.2727 86.4503 48.3027 86.4723C48.3327 86.4943 48.3557 86.5353 48.3717 86.5953C48.3877 86.6553 48.3937 86.7413 48.3897 86.8533C48.3737 86.9813 48.3557 87.1203 48.3357 87.2703C48.3157 87.4203 48.2877 87.5933 48.2517 87.7893L48.8037 87.2673L48.8577 87.4593L48.1377 88.2573Z" fill="#000000" fill-rule="nonzero" opacity="1" stroke="none"/>
</g>
</g>
<g opacity="1">
<clipPath id="ClipPath_15">
<path d="M9.76068 82.1853L94.4167 82.1853L94.4167 82.1853L94.4167 91.1853L94.4167 91.1853L9.76068 91.1853L9.76068 91.1853L9.76068 82.1853L9.76068 82.1853Z"/>
</clipPath>
<g clip-path="url(#ClipPath_15)">
<path d="M52.2117 85.9473C52.1237 85.9873 52.0617 86.0113 52.0257 86.0193C51.9137 86.0193 51.8457 85.9413 51.8217 85.7853C51.8137 85.6973 51.8197 85.5933 51.8397 85.4733C51.8597 85.3533 51.8897 85.2613 51.9297 85.1973C51.9737 85.1413 52.0857 85.0633 52.2657 84.9633C52.3577 84.9113 52.4617 84.8583 52.5777 84.8043C52.6937 84.7503 52.8157 84.6983 52.9437 84.6483C53.0717 84.5983 53.2037 84.5513 53.3397 84.5073C53.4757 84.4633 53.6097 84.4253 53.7417 84.3933C53.8937 84.3613 54.0357 84.3363 54.1677 84.3183C54.2997 84.3003 54.4237 84.2913 54.5397 84.2913C54.6397 84.2913 54.7237 84.2983 54.7917 84.3123C54.8597 84.3263 54.9147 84.3523 54.9567 84.3903C54.9987 84.4283 55.0327 84.4803 55.0587 84.5463C55.0847 84.6123 55.1057 84.6993 55.1217 84.8073C55.1337 84.8873 55.1247 84.9793 55.0947 85.0833C55.0647 85.1873 55.0077 85.3153 54.9237 85.4673C54.8397 85.6193 54.7237 85.7993 54.5757 86.0073C54.4277 86.2153 54.2417 86.4613 54.0177 86.7453C54.1017 86.7293 54.1797 86.7163 54.2517 86.7063C54.3237 86.6963 54.3977 86.6883 54.4737 86.6823C54.5497 86.6763 54.6297 86.6703 54.7137 86.6643C54.7977 86.6583 54.8917 86.6493 54.9957 86.6373C55.1477 86.3613 55.2887 86.1073 55.4187 85.8753C55.5487 85.6433 55.6637 85.4403 55.7637 85.2663C55.8637 85.0923 55.9437 84.9533 56.0037 84.8493C56.0637 84.7453 56.0997 84.6833 56.1117 84.6633C56.1437 84.6273 56.1647 84.6093 56.1747 84.6093C56.1847 84.6093 56.1937 84.6453 56.2017 84.7173C56.2137 84.7973 56.2157 84.8613 56.2077 84.9093C56.1997 84.9573 56.1817 85.0093 56.1537 85.0653C56.0617 85.2333 55.9457 85.4423 55.8057 85.6923C55.6657 85.9423 55.4937 86.2553 55.2897 86.6313C55.3977 86.6353 55.5097 86.6393 55.6257 86.6433C55.7417 86.6473 55.8577 86.6633 55.9737 86.6913L55.8297 86.8953C55.7577 86.8873 55.6667 86.8803 55.5567 86.8743C55.4467 86.8683 55.3297 86.8653 55.2057 86.8653C55.1737 86.9373 55.1387 87.0203 55.1007 87.1143C55.0627 87.2083 55.0267 87.3003 54.9927 87.3903C54.9587 87.4803 54.9307 87.5633 54.9087 87.6393C54.8867 87.7153 54.8757 87.7713 54.8757 87.8073C54.8797 87.8233 54.8847 87.8473 54.8907 87.8793C54.8967 87.9113 54.9077 87.9413 54.9237 87.9693C54.9517 88.0253 54.9647 88.0623 54.9627 88.0803C54.9607 88.0983 54.9377 88.1213 54.8937 88.1493C54.8617 88.1693 54.8317 88.1873 54.8037 88.2033C54.7757 88.2193 54.7397 88.2373 54.6957 88.2573C54.6637 88.2733 54.6407 88.2633 54.6267 88.2273C54.6127 88.1913 54.6017 88.1453 54.5937 88.0893C54.5857 88.0333 54.5887 87.9583 54.6027 87.8643C54.6167 87.7703 54.6377 87.6683 54.6657 87.5583C54.6937 87.4483 54.7277 87.3353 54.7677 87.2193C54.8077 87.1033 54.8497 86.9933 54.8937 86.8893C54.5817 86.9093 54.2197 86.9553 53.8077 87.0273C53.7757 87.0753 53.7447 87.1243 53.7147 87.1743C53.6847 87.2243 53.6537 87.2773 53.6217 87.3333L53.4297 87.6573C53.3697 87.7653 53.3117 87.8703 53.2557 87.9723C53.1997 88.0743 53.1497 88.1673 53.1057 88.2513C53.0857 88.2833 53.0577 88.2993 53.0217 88.2993C52.9497 88.3033 52.9067 88.2763 52.8927 88.2183C52.8787 88.1603 52.8897 88.0973 52.9257 88.0293C52.9617 87.9573 53.0047 87.8763 53.0547 87.7863C53.1047 87.6963 53.1557 87.6083 53.2077 87.5223C53.2597 87.4363 53.3077 87.3563 53.3517 87.2823C53.3957 87.2083 53.4277 87.1533 53.4477 87.1173C53.3837 87.1293 53.3017 87.1473 53.2017 87.1713C53.1017 87.1953 53.0057 87.2153 52.9137 87.2313C52.8217 87.2473 52.7417 87.2533 52.6737 87.2493C52.6057 87.2453 52.5717 87.2213 52.5717 87.1773C52.5757 87.1293 52.5827 87.0863 52.5927 87.0483C52.6027 87.0103 52.6357 86.9853 52.6917 86.9733C52.7197 86.9693 52.7637 86.9813 52.8237 87.0093L53.6697 86.8293C53.7617 86.7173 53.8547 86.5993 53.9487 86.4753C54.0427 86.3513 54.1317 86.2303 54.2157 86.1123C54.2997 85.9943 54.3767 85.8843 54.4467 85.7823C54.5167 85.6803 54.5717 85.5953 54.6117 85.5273C54.6997 85.3953 54.7597 85.2813 54.7917 85.1853C54.8237 85.0893 54.8457 85.0213 54.8577 84.9813C54.8857 84.8413 54.8777 84.7273 54.8337 84.6393C54.7897 84.5513 54.6917 84.5073 54.5397 84.5073C54.4197 84.5073 54.2967 84.5163 54.1707 84.5343C54.0447 84.5523 53.9097 84.5793 53.7657 84.6153C53.6217 84.6513 53.4667 84.6973 53.3007 84.7533C53.1347 84.8093 52.9497 84.8773 52.7457 84.9573C52.5617 85.0253 52.4247 85.0923 52.3347 85.1583C52.2447 85.2243 52.1737 85.2853 52.1217 85.3413C52.0777 85.4133 52.0477 85.4773 52.0317 85.5333C52.0157 85.5893 52.0267 85.6293 52.0647 85.6533C52.1027 85.6773 52.1737 85.6803 52.2777 85.6623C52.3817 85.6443 52.5317 85.5973 52.7277 85.5213C52.8197 85.4853 52.8707 85.4813 52.8807 85.5093C52.8907 85.5373 52.8617 85.5713 52.7937 85.6113L52.2117 85.9473Z" fill="#000000" fill-rule="nonzero" opacity="1" stroke="none"/>
</g>
</g>
<g opacity="1">
<clipPath id="ClipPath_16">
<path d="M9.76068 82.1853L94.4167 82.1853L94.4167 82.1853L94.4167 91.1853L94.4167 91.1853L9.76068 91.1853L9.76068 91.1853L9.76068 82.1853L9.76068 82.1853Z"/>
</clipPath>
<g clip-path="url(#ClipPath_16)">
<path d="M56.6337 86.7393C56.9457 86.4393 57.2177 86.2323 57.4497 86.1183C57.6817 86.0043 57.8757 85.9453 58.0317 85.9413C58.0997 85.9373 58.1537 85.9513 58.1937 85.9833C58.2337 86.0153 58.2377 86.0473 58.2057 86.0793C58.1857 86.0993 58.1627 86.1133 58.1367 86.1213C58.1107 86.1293 58.0777 86.1393 58.0377 86.1513C58.1217 86.2473 58.1737 86.3553 58.1937 86.4753C58.2017 86.5273 58.2047 86.5743 58.2027 86.6163C58.2007 86.6583 58.1857 86.6993 58.1577 86.7393C58.1177 86.8033 58.0787 86.8793 58.0407 86.9673C58.0027 87.0553 57.9697 87.1483 57.9417 87.2463C57.9137 87.3443 57.8917 87.4443 57.8757 87.5463C57.8597 87.6483 57.8517 87.7453 57.8517 87.8373C57.8517 87.9093 57.8637 87.9583 57.8877 87.9843C57.9117 88.0103 57.9597 88.0033 58.0317 87.9633C58.0997 87.9233 58.1957 87.8473 58.3197 87.7353C58.4437 87.6233 58.6017 87.4913 58.7937 87.3393L58.8177 87.5193C58.4257 88.0193 58.1217 88.2693 57.9057 88.2693C57.8377 88.2693 57.7837 88.2493 57.7437 88.2093C57.7037 88.1693 57.6737 88.0913 57.6537 87.9753C57.6377 87.8953 57.6347 87.7973 57.6447 87.6813C57.6547 87.5653 57.6957 87.4113 57.7677 87.2193C57.6637 87.3673 57.5667 87.5073 57.4767 87.6393C57.3867 87.7713 57.2897 87.8873 57.1857 87.9873C57.0737 88.0993 56.9837 88.1643 56.9157 88.1823C56.8477 88.2003 56.7737 88.1613 56.6937 88.0653C56.4777 87.8133 56.3627 87.5803 56.3487 87.3663C56.3347 87.1523 56.4297 86.9433 56.6337 86.7393ZM57.9957 86.1633C57.8157 86.1753 57.6417 86.2303 57.4737 86.3283C57.3057 86.4263 57.1157 86.5773 56.9037 86.7813C56.5757 87.0853 56.4877 87.3713 56.6397 87.6393C56.7157 87.7753 56.7817 87.8523 56.8377 87.8703C56.8937 87.8883 56.9517 87.8693 57.0117 87.8133C57.0717 87.7613 57.1237 87.7103 57.1677 87.6603C57.2117 87.6103 57.2537 87.5603 57.2937 87.5103C57.3337 87.4603 57.3747 87.4063 57.4167 87.3483C57.4587 87.2903 57.5057 87.2253 57.5577 87.1533C57.6497 87.0213 57.7247 86.9103 57.7827 86.8203C57.8407 86.7303 57.8857 86.6493 57.9177 86.5773C57.9497 86.5053 57.9707 86.4373 57.9807 86.3733C57.9907 86.3093 57.9937 86.2373 57.9897 86.1573L57.9957 86.1633Z" fill="#000000" fill-rule="nonzero" opacity="1" stroke="none"/>
</g>
</g>
<g opacity="1">
<clipPath id="ClipPath_17">
<path d="M9.76068 82.1853L94.4167 82.1853L94.4167 82.1853L94.4167 91.1853L94.4167 91.1853L9.76068 91.1853L9.76068 91.1853L9.76068 82.1853L9.76068 82.1853Z"/>
</clipPath>
<g clip-path="url(#ClipPath_17)">
<path d="M60.6777 86.6253C60.5497 86.7973 60.4537 86.9663 60.3897 87.1323C60.3257 87.2983 60.2757 87.4833 60.2397 87.6873C60.2197 87.7953 60.2267 87.8683 60.2607 87.9063C60.2947 87.9443 60.3457 87.9333 60.4137 87.8733C60.5177 87.7933 60.6147 87.7033 60.7047 87.6033C60.7947 87.5033 60.9157 87.3853 61.0677 87.2493L61.1157 87.4533C61.0077 87.6013 60.9117 87.7243 60.8277 87.8223C60.7437 87.9203 60.6677 87.9983 60.5997 88.0563C60.5317 88.1143 60.4727 88.1563 60.4227 88.1823C60.3727 88.2083 60.3297 88.2233 60.2937 88.2273C60.2377 88.2353 60.1847 88.2143 60.1347 88.1643C60.0847 88.1143 60.0497 88.0373 60.0297 87.9333C60.0137 87.8533 60.0127 87.7513 60.0267 87.6273C60.0407 87.5033 60.0857 87.3613 60.1617 87.2013C60.2217 87.0653 60.2797 86.9383 60.3357 86.8203C60.3917 86.7023 60.4537 86.5613 60.5217 86.3973C60.4737 86.4213 60.4087 86.4743 60.3267 86.5563C60.2447 86.6383 60.1567 86.7403 60.0627 86.8623C59.9687 86.9843 59.8727 87.1243 59.7747 87.2823C59.6767 87.4403 59.5897 87.6093 59.5137 87.7893C59.4697 87.9053 59.4297 87.9853 59.3937 88.0293C59.3577 88.0733 59.3177 88.0933 59.2737 88.0893C59.2177 88.0853 59.1637 88.0493 59.1117 87.9813C59.0597 87.9133 59.0137 87.8323 58.9737 87.7383C58.9337 87.6443 58.9017 87.5463 58.8777 87.4443C58.8537 87.3423 58.8437 87.2553 58.8477 87.1833C58.8637 87.1113 58.8937 87.0253 58.9377 86.9253C58.9937 86.8013 59.0427 86.7003 59.0847 86.6223C59.1267 86.5443 59.1657 86.4843 59.2017 86.4423C59.2377 86.4003 59.2737 86.3713 59.3097 86.3553C59.3457 86.3393 59.3857 86.3293 59.4297 86.3253C59.5217 86.3173 59.5647 86.3343 59.5587 86.3763C59.5527 86.4183 59.5157 86.4773 59.4477 86.5533C59.3197 86.7013 59.2257 86.8343 59.1657 86.9523C59.1057 87.0703 59.0837 87.2053 59.0997 87.3573C59.1197 87.5373 59.1547 87.6493 59.2047 87.6933C59.2547 87.7373 59.3037 87.7113 59.3517 87.6153C59.4117 87.4953 59.4657 87.3893 59.5137 87.2973C59.5617 87.2053 59.6097 87.1223 59.6577 87.0483C59.7057 86.9743 59.7547 86.9043 59.8047 86.8383C59.8547 86.7723 59.9117 86.7033 59.9757 86.6313C60.0877 86.4993 60.1967 86.3873 60.3027 86.2953C60.4087 86.2033 60.4977 86.1533 60.5697 86.1453C60.5857 86.1453 60.6047 86.1573 60.6267 86.1813C60.6487 86.2053 60.6687 86.2323 60.6867 86.2623C60.7047 86.2923 60.7207 86.3233 60.7347 86.3553C60.7487 86.3873 60.7577 86.4113 60.7617 86.4273C60.7697 86.4793 60.7417 86.5453 60.6777 86.6253Z" fill="#000000" fill-rule="nonzero" opacity="1" stroke="none"/>
</g>
</g>
<g opacity="1">
<clipPath id="ClipPath_18">
<path d="M9.76068 82.1853L94.4167 82.1853L94.4167 82.1853L94.4167 91.1853L94.4167 91.1853L9.76068 91.1853L9.76068 91.1853L9.76068 82.1853L9.76068 82.1853Z"/>
</clipPath>
<g clip-path="url(#ClipPath_18)">
<path d="M62.4597 87.2673C62.3557 87.4593 62.2557 87.6243 62.1597 87.7623C62.0637 87.9003 61.9857 88.0033 61.9257 88.0713C61.8457 88.1393 61.7957 88.1733 61.7757 88.1733C61.7397 88.1733 61.6907 88.1503 61.6287 88.1043C61.5667 88.0583 61.5027 87.9963 61.4367 87.9183C61.3707 87.8403 61.3087 87.7523 61.2507 87.6543C61.1927 87.5563 61.1497 87.4553 61.1217 87.3513C61.0777 87.2073 61.0887 87.0613 61.1547 86.9133C61.2207 86.7653 61.3117 86.6323 61.4277 86.5143C61.5437 86.3963 61.6697 86.2993 61.8057 86.2233C61.9417 86.1473 62.0577 86.1093 62.1537 86.1093C62.2017 86.1093 62.2587 86.1233 62.3247 86.1513C62.3907 86.1793 62.4577 86.2233 62.5257 86.2833C62.5657 86.1433 62.6007 86.0133 62.6307 85.8933C62.6607 85.7733 62.6907 85.6593 62.7207 85.5513C62.7507 85.4433 62.7817 85.3393 62.8137 85.2393C62.8457 85.1393 62.8837 85.0393 62.9277 84.9393C62.9637 84.8833 62.9887 84.8433 63.0027 84.8193C63.0167 84.7953 63.0337 84.7813 63.0537 84.7773C63.0857 84.7733 63.1157 84.7853 63.1437 84.8133C63.1717 84.8413 63.1817 84.8793 63.1737 84.9273C63.1737 84.9513 63.1707 84.9813 63.1647 85.0173C63.1587 85.0533 63.1437 85.1093 63.1197 85.1853C63.0957 85.2613 63.0607 85.3663 63.0147 85.5003C62.9687 85.6343 62.9077 85.8133 62.8317 86.0373C62.7837 86.1813 62.7467 86.3333 62.7207 86.4933C62.6947 86.6533 62.6787 86.8083 62.6727 86.9583C62.6667 87.1083 62.6697 87.2473 62.6817 87.3753C62.6937 87.5033 62.7117 87.6053 62.7357 87.6813C62.7797 87.8173 62.8167 87.9073 62.8467 87.9513C62.8767 87.9953 62.9217 88.0133 62.9817 88.0053C63.1097 87.9933 63.3237 87.7453 63.6237 87.2613L63.6897 87.4773C63.4337 88.0213 63.1937 88.2933 62.9697 88.2933C62.8817 88.2933 62.8087 88.2613 62.7507 88.1973C62.6927 88.1333 62.6357 88.0253 62.5797 87.8733C62.5477 87.7773 62.5217 87.6783 62.5017 87.5763C62.4817 87.4743 62.4677 87.3713 62.4597 87.2673ZM62.5077 86.4033C62.4277 86.3593 62.3487 86.3303 62.2707 86.3163C62.1927 86.3023 62.1097 86.3113 62.0217 86.3433C61.9337 86.3753 61.8407 86.4343 61.7427 86.5203C61.6447 86.6063 61.5377 86.7273 61.4217 86.8833C61.3697 86.9513 61.3337 87.0133 61.3137 87.0693C61.2937 87.1253 61.2867 87.1823 61.2927 87.2403C61.2987 87.2983 61.3167 87.3613 61.3467 87.4293C61.3767 87.4973 61.4177 87.5753 61.4697 87.6633C61.5377 87.7713 61.6027 87.8383 61.6647 87.8643C61.7267 87.8903 61.7997 87.8533 61.8837 87.7533C61.9557 87.6773 62.0117 87.6023 62.0517 87.5283C62.0917 87.4543 62.1457 87.3653 62.2137 87.2613C62.2937 87.1333 62.3597 86.9933 62.4117 86.8413C62.4637 86.6893 62.4957 86.5433 62.5077 86.4033Z" fill="#000000" fill-rule="nonzero" opacity="1" stroke="none"/>
</g>
</g>
<g opacity="1">
<clipPath id="ClipPath_19">
<path d="M9.76068 82.1853L94.4167 82.1853L94.4167 82.1853L94.4167 91.1853L94.4167 91.1853L9.76068 91.1853L9.76068 91.1853L9.76068 82.1853L9.76068 82.1853Z"/>
</clipPath>
<g clip-path="url(#ClipPath_19)">
<path d="M65.4177 87.7713C65.5017 87.6513 65.5877 87.5223 65.6757 87.3843C65.7637 87.2463 65.8397 87.1333 65.9037 87.0453C66.0997 86.7693 66.2447 86.5693 66.3387 86.4453C66.4327 86.3213 66.4957 86.2593 66.5277 86.2593C66.5677 86.2593 66.6147 86.2893 66.6687 86.3493C66.7227 86.4093 66.7617 86.4713 66.7857 86.5353C66.7897 86.5553 66.7847 86.5873 66.7707 86.6313C66.7567 86.6753 66.7297 86.7313 66.6897 86.7993C66.6697 86.8353 66.6497 86.8823 66.6297 86.9403C66.6097 86.9983 66.5907 87.0603 66.5727 87.1263C66.5547 87.1923 66.5367 87.2593 66.5187 87.3273C66.5007 87.3953 66.4837 87.4593 66.4677 87.5193C66.4237 87.7073 66.4257 87.8383 66.4737 87.9123C66.5217 87.9863 66.5957 87.9733 66.6957 87.8733C66.7917 87.7853 66.8857 87.6923 66.9777 87.5943C67.0697 87.4963 67.1697 87.3813 67.2777 87.2493L67.3557 87.4593C67.1797 87.7113 67.0307 87.8993 66.9087 88.0233C66.7867 88.1473 66.6677 88.2133 66.5517 88.2213C66.4677 88.2213 66.3927 88.1823 66.3267 88.1043C66.2607 88.0263 66.2237 87.9173 66.2157 87.7773C66.2157 87.7533 66.2207 87.7053 66.2307 87.6333C66.2407 87.5613 66.2567 87.4743 66.2787 87.3723C66.3007 87.2703 66.3307 87.1543 66.3687 87.0243C66.4067 86.8943 66.4537 86.7593 66.5097 86.6193C66.4417 86.7033 66.3707 86.7943 66.2967 86.8923C66.2227 86.9903 66.1527 87.0873 66.0867 87.1833C66.0207 87.2793 65.9607 87.3693 65.9067 87.4533C65.8527 87.5373 65.8117 87.6073 65.7837 87.6633C65.7557 87.7193 65.7267 87.7743 65.6967 87.8283C65.6667 87.8823 65.6397 87.9273 65.6157 87.9633C65.5877 88.0273 65.5607 88.0733 65.5347 88.1013C65.5087 88.1293 65.4717 88.1433 65.4237 88.1433C65.3757 88.1433 65.3387 88.1253 65.3127 88.0893C65.2867 88.0533 65.2617 87.9993 65.2377 87.9273C65.2297 87.8993 65.2287 87.8473 65.2347 87.7713C65.2407 87.6953 65.2547 87.6013 65.2767 87.4893C65.2987 87.3773 65.3267 87.2533 65.3607 87.1173C65.3947 86.9813 65.4357 86.8393 65.4837 86.6913C65.5277 86.6033 65.5417 86.5413 65.5257 86.5053C65.5097 86.4693 65.4837 86.4493 65.4477 86.4453C65.4037 86.4413 65.3237 86.5233 65.2077 86.6913C65.1477 86.7793 65.0887 86.8783 65.0307 86.9883C64.9727 87.0983 64.9197 87.2073 64.8717 87.3153C64.8237 87.4233 64.7827 87.5223 64.7487 87.6123C64.7147 87.7023 64.6917 87.7693 64.6797 87.8133C64.6597 87.8773 64.6407 87.9283 64.6227 87.9663C64.6047 88.0043 64.5917 88.0313 64.5837 88.0473C64.5637 88.1033 64.5217 88.1203 64.4577 88.0983C64.3937 88.0763 64.3197 88.0153 64.2357 87.9153C64.1837 87.8553 64.1367 87.7893 64.0947 87.7173C64.0527 87.6453 64.0177 87.5673 63.9897 87.4833C63.9697 87.4273 63.9547 87.3763 63.9447 87.3303C63.9347 87.2843 63.9297 87.2383 63.9297 87.1923C63.9297 87.1463 63.9347 87.0963 63.9447 87.0423C63.9547 86.9883 63.9697 86.9213 63.9897 86.8413C64.0457 86.6493 64.1057 86.5113 64.1697 86.4273C64.2337 86.3433 64.3077 86.3053 64.3917 86.3133C64.4837 86.3213 64.5377 86.3423 64.5537 86.3763C64.5697 86.4103 64.5477 86.4633 64.4877 86.5353C64.4517 86.5793 64.4187 86.6263 64.3887 86.6763C64.3587 86.7263 64.3217 86.7773 64.2777 86.8293C64.2577 86.8573 64.2387 86.8953 64.2207 86.9433C64.2027 86.9913 64.1897 87.0373 64.1817 87.0813C64.1457 87.2853 64.1517 87.4433 64.1997 87.5553C64.2477 87.6673 64.3057 87.7213 64.3737 87.7173C64.3817 87.7173 64.3937 87.7123 64.4097 87.7023C64.4257 87.6923 64.4447 87.6703 64.4667 87.6363C64.4887 87.6023 64.5147 87.5533 64.5447 87.4893C64.5747 87.4253 64.6097 87.3393 64.6497 87.2313C64.6897 87.1273 64.7407 87.0163 64.8027 86.8983C64.8647 86.7803 64.9327 86.6693 65.0067 86.5653C65.0807 86.4613 65.1577 86.3743 65.2377 86.3043C65.3177 86.2343 65.3977 86.1953 65.4777 86.1873C65.5497 86.1793 65.6157 86.2143 65.6757 86.2923C65.7357 86.3703 65.7557 86.4733 65.7357 86.6013C65.7157 86.7373 65.6807 86.9063 65.6307 87.1083C65.5807 87.3103 65.5097 87.5313 65.4177 87.7713Z" fill="#000000" fill-rule="nonzero" opacity="1" stroke="none"/>
</g>
</g>
<g opacity="1">
<clipPath id="ClipPath_20">
<path d="M9.76068 82.1853L94.4167 82.1853L94.4167 82.1853L94.4167 91.1853L94.4167 91.1853L9.76068 91.1853L9.76068 91.1853L9.76068 82.1853L9.76068 82.1853Z"/>
</clipPath>
<g clip-path="url(#ClipPath_20)">
<path d="M67.5957 86.7393C67.9077 86.4393 68.1797 86.2323 68.4117 86.1183C68.6437 86.0043 68.8377 85.9453 68.9937 85.9413C69.0617 85.9373 69.1157 85.9513 69.1557 85.9833C69.1957 86.0153 69.1997 86.0473 69.1677 86.0793C69.1477 86.0993 69.1247 86.1133 69.0987 86.1213C69.0727 86.1293 69.0397 86.1393 68.9997 86.1513C69.0837 86.2473 69.1357 86.3553 69.1557 86.4753C69.1637 86.5273 69.1667 86.5743 69.1647 86.6163C69.1627 86.6583 69.1477 86.6993 69.1197 86.7393C69.0797 86.8033 69.0407 86.8793 69.0027 86.9673C68.9647 87.0553 68.9317 87.1483 68.9037 87.2463C68.8757 87.3443 68.8537 87.4443 68.8377 87.5463C68.8217 87.6483 68.8137 87.7453 68.8137 87.8373C68.8137 87.9093 68.8257 87.9583 68.8497 87.9843C68.8737 88.0103 68.9217 88.0033 68.9937 87.9633C69.0617 87.9233 69.1577 87.8473 69.2817 87.7353C69.4057 87.6233 69.5637 87.4913 69.7557 87.3393L69.7797 87.5193C69.3877 88.0193 69.0837 88.2693 68.8677 88.2693C68.7997 88.2693 68.7457 88.2493 68.7057 88.2093C68.6657 88.1693 68.6357 88.0913 68.6157 87.9753C68.5997 87.8953 68.5967 87.7973 68.6067 87.6813C68.6167 87.5653 68.6577 87.4113 68.7297 87.2193C68.6257 87.3673 68.5287 87.5073 68.4387 87.6393C68.3487 87.7713 68.2517 87.8873 68.1477 87.9873C68.0357 88.0993 67.9457 88.1643 67.8777 88.1823C67.8097 88.2003 67.7357 88.1613 67.6557 88.0653C67.4397 87.8133 67.3247 87.5803 67.3107 87.3663C67.2967 87.1523 67.3917 86.9433 67.5957 86.7393ZM68.9577 86.1633C68.7777 86.1753 68.6037 86.2303 68.4357 86.3283C68.2677 86.4263 68.0777 86.5773 67.8657 86.7813C67.5377 87.0853 67.4497 87.3713 67.6017 87.6393C67.6777 87.7753 67.7437 87.8523 67.7997 87.8703C67.8557 87.8883 67.9137 87.8693 67.9737 87.8133C68.0337 87.7613 68.0857 87.7103 68.1297 87.6603C68.1737 87.6103 68.2157 87.5603 68.2557 87.5103C68.2957 87.4603 68.3367 87.4063 68.3787 87.3483C68.4207 87.2903 68.4677 87.2253 68.5197 87.1533C68.6117 87.0213 68.6867 86.9103 68.7447 86.8203C68.8027 86.7303 68.8477 86.6493 68.8797 86.5773C68.9117 86.5053 68.9327 86.4373 68.9427 86.3733C68.9527 86.3093 68.9557 86.2373 68.9517 86.1573L68.9577 86.1633Z" fill="#000000" fill-rule="nonzero" opacity="1" stroke="none"/>
</g>
</g>
<g opacity="1">
<clipPath id="ClipPath_21">
<path d="M9.76068 82.1853L94.4167 82.1853L94.4167 82.1853L94.4167 91.1853L94.4167 91.1853L9.76068 91.1853L9.76068 91.1853L9.76068 82.1853L9.76068 82.1853Z"/>
</clipPath>
<g clip-path="url(#ClipPath_21)">
<path d="M71.1837 87.2673C71.0797 87.4593 70.9797 87.6243 70.8837 87.7623C70.7877 87.9003 70.7097 88.0033 70.6497 88.0713C70.5697 88.1393 70.5197 88.1733 70.4997 88.1733C70.4637 88.1733 70.4147 88.1503 70.3527 88.1043C70.2907 88.0583 70.2267 87.9963 70.1607 87.9183C70.0947 87.8403 70.0327 87.7523 69.9747 87.6543C69.9167 87.5563 69.8737 87.4553 69.8457 87.3513C69.8017 87.2073 69.8127 87.0613 69.8787 86.9133C69.9447 86.7653 70.0357 86.6323 70.1517 86.5143C70.2677 86.3963 70.3937 86.2993 70.5297 86.2233C70.6657 86.1473 70.7817 86.1093 70.8777 86.1093C70.9257 86.1093 70.9827 86.1233 71.0487 86.1513C71.1147 86.1793 71.1817 86.2233 71.2497 86.2833C71.2897 86.1433 71.3247 86.0133 71.3547 85.8933C71.3847 85.7733 71.4147 85.6593 71.4447 85.5513C71.4747 85.4433 71.5057 85.3393 71.5377 85.2393C71.5697 85.1393 71.6077 85.0393 71.6517 84.9393C71.6877 84.8833 71.7127 84.8433 71.7267 84.8193C71.7407 84.7953 71.7577 84.7813 71.7777 84.7773C71.8097 84.7733 71.8397 84.7853 71.8677 84.8133C71.8957 84.8413 71.9057 84.8793 71.8977 84.9273C71.8977 84.9513 71.8947 84.9813 71.8887 85.0173C71.8827 85.0533 71.8677 85.1093 71.8437 85.1853C71.8197 85.2613 71.7847 85.3663 71.7387 85.5003C71.6927 85.6343 71.6317 85.8133 71.5557 86.0373C71.5077 86.1813 71.4707 86.3333 71.4447 86.4933C71.4187 86.6533 71.4027 86.8083 71.3967 86.9583C71.3907 87.1083 71.3937 87.2473 71.4057 87.3753C71.4177 87.5033 71.4357 87.6053 71.4597 87.6813C71.5037 87.8173 71.5407 87.9073 71.5707 87.9513C71.6007 87.9953 71.6457 88.0133 71.7057 88.0053C71.8337 87.9933 72.0477 87.7453 72.3477 87.2613L72.4137 87.4773C72.1577 88.0213 71.9177 88.2933 71.6937 88.2933C71.6057 88.2933 71.5327 88.2613 71.4747 88.1973C71.4167 88.1333 71.3597 88.0253 71.3037 87.8733C71.2717 87.7773 71.2457 87.6783 71.2257 87.5763C71.2057 87.4743 71.1917 87.3713 71.1837 87.2673ZM71.2317 86.4033C71.1517 86.3593 71.0727 86.3303 70.9947 86.3163C70.9167 86.3023 70.8337 86.3113 70.7457 86.3433C70.6577 86.3753 70.5647 86.4343 70.4667 86.5203C70.3687 86.6063 70.2617 86.7273 70.1457 86.8833C70.0937 86.9513 70.0577 87.0133 70.0377 87.0693C70.0177 87.1253 70.0107 87.1823 70.0167 87.2403C70.0227 87.2983 70.0407 87.3613 70.0707 87.4293C70.1007 87.4973 70.1417 87.5753 70.1937 87.6633C70.2617 87.7713 70.3267 87.8383 70.3887 87.8643C70.4507 87.8903 70.5237 87.8533 70.6077 87.7533C70.6797 87.6773 70.7357 87.6023 70.7757 87.5283C70.8157 87.4543 70.8697 87.3653 70.9377 87.2613C71.0177 87.1333 71.0837 86.9933 71.1357 86.8413C71.1877 86.6893 71.2197 86.5433 71.2317 86.4033Z" fill="#000000" fill-rule="nonzero" opacity="1" stroke="none"/>
</g>
</g>
<g opacity="1">
<clipPath id="ClipPath_22">
<path d="M9.76068 82.1853L94.4167 82.1853L94.4167 82.1853L94.4167 91.1853L94.4167 91.1853L9.76068 91.1853L9.76068 91.1853L9.76068 82.1853L9.76068 82.1853Z"/>
</clipPath>
<g clip-path="url(#ClipPath_22)">
<path d="M72.9297 87.6693C72.9697 87.8133 73.0317 87.9183 73.1157 87.9843C73.1997 88.0503 73.3177 88.0613 73.4697 88.0173C73.5977 87.9893 73.7347 87.9173 73.8807 87.8013C74.0267 87.6853 74.2017 87.5053 74.4057 87.2613L74.4297 87.4413C74.2377 87.7173 74.0547 87.9233 73.8807 88.0593C73.7067 88.1953 73.5237 88.2633 73.3317 88.2633C73.1637 88.2633 73.0217 88.1983 72.9057 88.0683C72.7897 87.9383 72.7097 87.7513 72.6657 87.5073C72.6417 87.3753 72.6487 87.2413 72.6867 87.1053C72.7247 86.9693 72.7847 86.8403 72.8667 86.7183C72.9487 86.5963 73.0467 86.4843 73.1607 86.3823C73.2747 86.2803 73.3977 86.1973 73.5297 86.1333C73.7097 86.0453 73.8677 86.0173 74.0037 86.0493C74.1397 86.0813 74.2177 86.1613 74.2377 86.2893C74.2577 86.4133 74.2317 86.5353 74.1597 86.6553C74.0877 86.7753 73.9617 86.8973 73.7817 87.0213C73.7377 87.0533 73.6787 87.0893 73.6047 87.1293C73.5307 87.1693 73.4517 87.2093 73.3677 87.2493C73.2837 87.2893 73.1987 87.3283 73.1127 87.3663C73.0267 87.4043 72.9517 87.4373 72.8877 87.4653L72.9297 87.6693ZM72.8877 87.2613C73.2117 87.1093 73.4577 86.9753 73.6257 86.8593C73.7937 86.7433 73.8997 86.6353 73.9437 86.5353C73.9797 86.4713 73.9987 86.4173 74.0007 86.3733C74.0027 86.3293 73.9947 86.2963 73.9767 86.2743C73.9587 86.2523 73.9317 86.2403 73.8957 86.2383C73.8597 86.2363 73.8217 86.2433 73.7817 86.2593C73.6537 86.3073 73.5367 86.3673 73.4307 86.4393C73.3247 86.5113 73.2317 86.5903 73.1517 86.6763C73.0717 86.7623 73.0087 86.8553 72.9627 86.9553C72.9167 87.0553 72.8917 87.1573 72.8877 87.2613Z" fill="#000000" fill-rule="nonzero" opacity="1" stroke="none"/>
</g>
</g>
</g>
<path d="M17.7532 14.1514C21.1551 14.1514 55 14.1514 55 14.1514L92.9827 14.1514C92.9827 14.1514 95.7293 13.8026 95.7293 16.8585C95.7293 19.9145 95.841 54.9787 95.841 54.9787C95.841 54.9787 95.841 87.9201 95.841 92.0232C95.841 96.1263 92.2406 95.8321 92.2406 95.8321L55 95.8061L17.3734 95.8061C17.3734 95.8061 14.1788 96.5222 14.1788 92.7679C14.1788 89.0135 14.159 54.9787 14.159 54.9787C14.159 54.9787 14.159 21.0843 14.159 17.4838C14.159 13.8834 14.3514 14.1514 17.7532 14.1514Z" fill="none" opacity="1" stroke="#000000" stroke-linecap="round" stroke-linejoin="round" stroke-width="1.2"/>
<path d="M44.6123 21.4593C44.6123 23.4512 44.9443 24.7791 45.6083 25.4431C46.2722 26.1071 47.7662 26.439 50.0901 26.439C52.414 26.439 53.7419 26.937 54.0739 27.933C54.2399 28.431 54.4059 28.9289 54.5719 29.4269C53.4099 29.4269 52.248 29.4269 51.086 29.4269C48.7621 29.4269 46.9362 30.0909 45.6083 31.4188C44.2803 32.7468 43.9483 35.0707 44.6123 38.3905C45.2763 41.7104 45.2763 47.1882 44.6123 54.8238C44.2803 58.6417 43.9483 62.4595 43.6163 66.2774C44.2803 66.1114 44.9443 65.9454 45.6083 65.7794C46.9362 65.4474 47.9322 64.2854 48.5961 62.2935C49.2601 60.3016 49.4261 56.1518 49.0941 49.8441C48.9281 46.6902 48.7621 43.5363 48.5961 40.3825C50.754 40.3825 52.912 40.3825 55.0699 40.3825C59.3857 40.3825 62.2076 40.0505 63.5355 39.3865C64.8634 38.7225 65.6934 37.5606 66.0254 35.9006C66.3574 34.2407 67.0214 33.4108 68.0173 33.4108C69.0133 33.4108 69.8432 34.4067 70.5072 36.3986C71.1712 38.3905 74.1591 39.5525 79.4708 39.8845C82.1267 40.0505 84.7826 40.2165 87.4385 40.3825C87.1065 43.0383 86.7745 45.6942 86.4425 48.3501C85.7786 53.6619 85.7786 57.8117 86.4425 60.7996C87.1065 63.7875 87.7705 65.6134 88.4344 66.2774C89.0984 66.9413 89.9284 67.1073 90.9243 66.7753C91.9203 66.4434 91.9203 64.4514 90.9243 60.7996C89.9284 57.1478 89.7624 51.67 90.4264 44.3663C91.0903 37.0626 90.5924 32.7468 88.9324 31.4188C87.2725 30.0909 85.6126 29.4269 83.9526 29.4269C83.1227 29.4269 82.2927 29.4269 81.4627 29.4269C81.6287 28.9289 81.7947 28.431 81.9607 27.933C82.2927 26.937 83.6207 26.439 85.9446 26.439C88.2685 26.439 89.9284 25.2771 90.9243 22.9532C91.4223 21.7912 91.9203 20.6293 92.4183 19.4673C91.7543 19.3013 91.0903 19.1354 90.4264 18.9694C89.0984 18.6374 88.1025 19.3013 87.4385 20.9613C86.7745 22.6212 85.7786 23.4512 84.4506 23.4512C83.7866 23.4512 83.1227 23.4512 82.4587 23.4512C82.4587 22.6212 82.4587 21.7912 82.4587 20.9613C82.4587 20.1313 82.4587 19.3013 82.4587 18.4714C81.9607 18.4714 81.4627 18.4714 80.9648 18.4714C79.9688 18.4714 79.3048 19.3013 78.9728 20.9613C78.6409 22.6212 77.8109 23.4512 76.483 23.4512C75.155 23.4512 74.325 22.7872 73.9931 21.4593C73.6611 20.1313 72.8311 19.3013 71.5032 18.9694C70.8392 18.8034 70.1752 18.6374 69.5112 18.4714C69.5112 19.3013 69.5112 20.1313 69.5112 20.9613C69.5112 22.6212 70.0092 23.9492 71.0052 24.9451C72.0011 25.9411 73.4951 26.439 75.487 26.439C77.4789 26.439 78.6409 26.937 78.9728 27.933C79.1388 28.431 79.3048 28.9289 79.4708 29.4269C77.9769 29.4269 76.483 29.4269 74.989 29.4269C72.0011 29.4269 70.3412 28.763 70.0092 27.435C69.6772 26.1071 69.0133 25.4431 68.0173 25.4431C67.5193 25.4431 67.0214 25.4431 66.5234 25.4431C66.5234 26.1071 66.5234 26.771 66.5234 27.435C66.5234 28.099 66.5234 28.763 66.5234 29.4269C64.6975 29.4269 62.8715 29.4269 61.0456 29.4269C59.2197 29.4269 57.3938 29.4269 55.5678 29.4269C55.8998 28.9289 56.2318 28.431 56.5638 27.933C57.2278 26.937 58.5557 26.439 60.5476 26.439C62.5395 26.439 64.0335 25.9411 65.0294 24.9451C66.0254 23.9492 66.5234 22.6212 66.5234 20.9613C66.5234 20.1313 66.5234 19.3013 66.5234 18.4714C66.0254 18.4714 65.5274 18.4714 65.0294 18.4714C64.0335 18.4714 63.0375 19.3013 62.0416 20.9613C61.0456 22.6212 60.0496 23.4512 59.0537 23.4512C58.0577 23.4512 57.3938 22.6212 57.0618 20.9613C56.7298 19.3013 56.0658 18.4714 55.0699 18.4714C54.5719 18.4714 54.0739 18.4714 53.5759 18.4714C53.5759 19.3013 53.5759 20.1313 53.5759 20.9613C53.5759 21.7912 53.5759 22.6212 53.5759 23.4512C52.58 23.2852 51.584 23.1192 50.588 22.9532C48.5961 22.6212 47.6002 21.7912 47.6002 20.4633C47.6002 19.7993 47.6002 19.1354 47.6002 18.4714C47.1022 18.4714 46.6042 18.4714 46.1062 18.4714C45.6083 18.4714 45.1103 18.4714 44.6123 18.4714C44.6123 19.4673 44.6123 20.4633 44.6123 21.4593ZM55.5678 33.4246C57.8917 33.4246 60.2156 33.4246 62.5395 33.4246C62.5395 33.7566 62.5395 34.0886 62.5395 34.4206C62.5395 35.0845 60.0496 35.5825 55.0699 35.9145C52.58 36.0805 50.0901 36.2465 47.6002 36.4125C47.7662 35.9145 47.9322 35.4165 48.0982 34.9185C48.4301 33.9226 50.92 33.4246 55.5678 33.4246ZM73.4951 33.4246C75.653 33.4246 77.8109 33.4246 79.9688 33.4246C84.2846 33.4246 86.7745 33.9226 87.4385 34.9185C87.7705 35.4165 88.1025 35.9145 88.4344 36.4125C86.1105 36.4125 83.7866 36.4125 81.4627 36.4125C76.8149 36.4125 74.325 35.9145 73.9931 34.9185C73.8271 34.4206 73.6611 33.9226 73.4951 33.4246ZM53.0779 42.8862C52.082 43.8822 51.584 48.032 51.584 55.3357C51.584 58.9875 51.584 62.6394 51.584 66.2912C52.248 66.1252 52.912 65.9592 53.5759 65.7932C54.9039 65.4612 55.5678 61.9754 55.5678 55.3357C55.5678 48.696 57.3938 45.2101 61.0456 44.8781C62.8715 44.7121 64.6975 44.5461 66.5234 44.3801C66.3574 43.8822 66.1914 43.3842 66.0254 42.8862C65.6934 41.8902 63.7015 41.3923 60.0496 41.3923C56.3978 41.3923 54.0739 41.8902 53.0779 42.8862ZM69.5112 43.3842C69.5112 44.7121 71.3372 45.5421 74.989 45.8741C78.6409 46.2061 80.4668 49.6919 80.4668 56.3316C80.4668 59.6515 80.4668 62.9713 80.4668 66.2912C81.1308 66.2912 81.7947 66.2912 82.4587 66.2912C83.1227 66.2912 83.7866 66.2912 84.4506 66.2912C84.2846 62.6394 84.1186 58.9875 83.9526 55.3357C83.6207 48.032 82.7907 43.8822 81.4627 42.8862C80.1348 41.8902 77.8109 41.3923 74.491 41.3923C72.8311 41.3923 71.1712 41.3923 69.5112 41.3923C69.5112 42.0562 69.5112 42.7202 69.5112 43.3842ZM57.0618 54.3397C56.7298 59.6515 57.0618 62.9713 58.0577 64.2993C59.0537 65.6272 61.7096 66.4572 66.0254 66.7892C70.3412 67.1212 73.4951 66.6232 75.487 65.2952C77.4789 63.9673 78.3089 60.4815 77.9769 54.8377C77.6449 49.1939 77.1469 46.372 76.483 46.372C75.819 46.372 75.321 47.036 74.989 48.364C74.657 49.6919 72.1671 50.3559 67.5193 50.3559C65.1954 50.3559 62.8715 50.3559 60.5476 50.3559C60.5476 49.8579 60.5476 49.3599 60.5476 48.8619C60.5476 47.866 60.0496 47.202 59.0537 46.87C58.5557 46.704 58.0577 46.538 57.5598 46.372C57.3938 49.0279 57.2278 51.6838 57.0618 54.3397ZM60.5619 54.3397C62.8858 54.3397 65.2097 54.3397 67.5336 54.3397C69.8575 54.3397 72.1814 54.3397 74.5053 54.3397C74.5053 55.6677 74.5053 56.9956 74.5053 58.3235C74.5053 59.6515 74.5053 60.9794 74.5053 62.3074C72.3474 62.3074 70.1895 62.3074 68.0316 62.3074C63.7158 62.3074 61.3919 60.9794 61.0599 58.3235C60.8939 56.9956 60.7279 55.6677 60.5619 54.3397Z" fill="#000000" fill-rule="nonzero" opacity="1" stroke="none"/>
<g opacity="1">
<path d="M24.9434 74.8252C24.1059 74.8252 23.5932 74.2612 23.5932 73.5433C23.5932 72.3298 24.4819 72.1418 25.5929 72.1418L30.4982 72.1418L30.4982 69.3046L24.4819 69.3046C22.1917 69.3046 20.6876 71.253 20.6876 73.4066C20.6876 76.4318 22.5848 77.6624 25.4904 77.6624L27.2166 77.6624C28.2934 77.6624 29.1309 78.3119 29.1309 79.4228C29.1309 80.6022 28.1737 81.1491 27.0115 81.1491L21.1491 81.1491L21.1491 83.8496L27.7806 83.8496C30.1564 83.8496 31.7801 81.9353 31.7801 79.4228C31.7801 76.7565 29.9855 74.8252 27.5584 74.8252L24.9434 74.8252Z" fill="#000000" fill-rule="nonzero" opacity="1" stroke="none"/>
<path d="M37.6425 69.3046C35.3181 69.3046 33.4209 71.2017 33.4209 73.5433L33.4209 79.6279C33.4209 81.9524 35.3181 83.8496 37.6425 83.8496L39.3175 83.8496C40.2405 83.8496 41.0951 83.5419 41.7787 83.0463L42.4282 83.8496L44.9236 83.8496L43.0777 81.5251C43.3512 80.9611 43.5221 80.3116 43.5221 79.6279L43.5221 73.5433C43.5221 71.2017 41.6591 69.3046 39.3175 69.3046L37.6425 69.3046ZM39.8474 77.4402L37.2836 77.4402L40.1721 81.0466C39.9328 81.2175 39.6423 81.32 39.3004 81.32L37.6596 81.32C36.6683 81.32 36.0359 80.4825 36.0359 79.4741L36.0359 73.68C36.0359 72.6716 36.6683 71.8341 37.6596 71.8341L39.3004 71.8341C40.2746 71.8341 40.907 72.6716 40.907 73.68L40.907 78.7905L39.8474 77.4402Z" fill="#000000" fill-rule="nonzero" opacity="1" stroke="none"/>
<path d="M56.2554 69.3046L53.6403 69.3046L53.6403 79.4741C53.6403 80.4825 52.837 81.32 51.8457 81.32L50.5809 81.32C49.5896 81.32 48.7863 80.4825 48.7863 79.4741L48.7863 69.3046L46.1542 69.3046L46.1542 79.6279C46.1542 81.9524 48.0685 83.8496 50.3929 83.8496L52.0508 83.8496C54.3924 83.8496 56.2554 81.9524 56.2554 79.6279L56.2554 69.3046Z" fill="#000000" fill-rule="nonzero" opacity="1" stroke="none"/>
<path d="M58.2209 83.8496L60.9214 83.8496L60.9214 69.3046L58.2209 69.3046L58.2209 83.8496Z" fill="#000000" fill-rule="nonzero" opacity="1" stroke="none"/>
<path d="M63.1091 83.8496L69.7407 83.8496C71.655 83.8496 73.1932 82.1233 73.1932 80.004L73.1932 73.1502C73.1932 71.0308 71.655 69.3046 69.7407 69.3046L63.1091 69.3046L63.1091 83.8496ZM65.7754 81.1662L65.7754 71.9709L69.0912 71.9709C69.8945 71.9709 70.544 72.7058 70.544 73.5775L70.544 79.5596C70.544 80.4483 69.8945 81.1662 69.0912 81.1662L65.7754 81.1662Z" fill="#000000" fill-rule="nonzero" opacity="1" stroke="none"/>
<path d="M75.2784 83.8496L77.9789 83.8496L77.9789 69.3046L75.2784 69.3046L75.2784 83.8496Z" fill="#000000" fill-rule="nonzero" opacity="1" stroke="none"/>
<path d="M84.2003 69.3046C81.8758 69.3046 79.9786 71.2017 79.9786 73.5433L79.9786 79.6279C79.9786 81.9524 81.8758 83.8496 84.2003 83.8496L85.8581 83.8496C88.1997 83.8496 90.0798 81.9524 90.0798 79.6279L90.0798 73.5433C90.0798 71.2017 88.1997 69.3046 85.8581 69.3046L84.2003 69.3046ZM87.4648 79.4741C87.4648 80.4825 86.8324 81.32 85.8411 81.32L84.2173 81.32C83.226 81.32 82.5936 80.4825 82.5936 79.4741L82.5936 73.68C82.5936 72.6716 83.226 71.8341 84.2173 71.8341L85.8411 71.8341C86.8324 71.8341 87.4648 72.6716 87.4648 73.68L87.4648 79.4741Z" fill="#000000" fill-rule="nonzero" opacity="1" stroke="none"/>
</g>
<g opacity="1">
<path d="M20.7815 91.6716L21.5677 91.6716L22.1232 90.1162L24.6185 90.1162L25.1655 91.6716L25.815 91.6716L23.6443 85.886L22.9692 85.886L20.7815 91.6716ZM22.2855 89.7573L23.4136 86.7235L24.4476 89.7573L22.2855 89.7573Z" fill="#000000" fill-rule="nonzero" opacity="1" stroke="none"/>
<path d="M26.6268 91.6716L27.319 91.6716L27.319 89.6548C27.319 89.1335 27.5156 88.5523 28.3445 88.5523C28.8915 88.5523 29.1649 88.9882 29.1649 89.4668L29.1649 91.6716L29.6606 91.6716L29.6606 89.5009C29.6606 88.8685 29.934 88.5609 30.4126 88.5694C30.9339 88.578 31.0194 89.0138 31.0194 89.4838L31.0194 91.6716L31.4381 91.6716L31.4381 89.2702C31.4381 88.5523 31.045 88.0567 30.4724 88.0567L30.2161 88.0567C29.8999 88.0567 29.5409 88.2618 29.3957 88.578C29.2418 88.2618 28.8231 88.0567 28.5069 88.0567L28.242 88.0567C27.9172 88.0567 27.5498 88.108 27.319 88.39L27.319 87.8089L26.6268 87.8089L26.6268 91.6716Z" fill="#000000" fill-rule="nonzero" opacity="1" stroke="none"/>
<path d="M32.5405 90.5435C32.5405 91.2357 33.0106 91.663 33.5318 91.663L34.2753 91.663C34.6599 91.663 35.0872 91.4237 35.2068 91.0905L35.523 91.7229L36.0871 91.7229C35.7965 91.2785 35.6085 90.7657 35.6085 90.2188L35.6085 87.92L35.0359 87.92L35.0359 88.5694C34.8052 88.1592 34.4633 88.0481 33.9762 88.0481L33.6344 88.0481C33.0106 88.0481 32.5405 88.5438 32.5405 89.2018L32.5405 90.5435ZM33.0447 89.2873C33.0447 88.6805 33.4293 88.4071 33.831 88.4071L34.0104 88.4071C34.4719 88.4071 34.9163 88.7831 34.9163 89.4411L34.9163 90.4324C34.9163 91.0648 34.5403 91.3127 34.0617 91.3127L33.8224 91.3127C33.1473 91.3127 33.0447 90.7743 33.0447 90.4153L33.0447 89.2873Z" fill="#000000" fill-rule="nonzero" opacity="1" stroke="none"/>
<path d="M36.7536 91.6716L40.3942 91.6716L40.3942 91.0477L37.9671 91.0477L40.3771 87.8943L36.8134 87.8943L36.8134 88.2618L39.1977 88.2618L36.7536 91.6716Z" fill="#000000" fill-rule="nonzero" opacity="1" stroke="none"/>
<path d="M41.4282 86.8859L42.052 86.8859L42.052 86.2279L41.4282 86.2279L41.4282 86.8859ZM41.4453 91.6716L42.035 91.6716L42.035 87.9029L41.4453 87.9029L41.4453 91.6716Z" fill="#000000" fill-rule="nonzero" opacity="1" stroke="none"/>
<path d="M43.1459 91.6716L43.8552 91.6716L43.8552 89.2702C43.8552 88.8258 44.3252 88.5182 44.8807 88.5182L45.1542 88.5182C45.7951 88.5182 46.1113 88.9455 46.1113 89.4497L46.1113 91.6716L46.5899 91.6716L46.5899 89.3044C46.5899 88.5011 46.0259 87.9798 45.2226 87.9798L44.8978 87.9798C44.3765 87.9798 44.0945 88.0481 43.8552 88.2105L43.8552 87.8003L43.1459 87.8003L43.1459 91.6716Z" fill="#000000" fill-rule="nonzero" opacity="1" stroke="none"/>
<path d="M47.5897 90.6717C47.5897 91.3383 48.0598 91.663 48.5725 91.663L49.222 91.663C49.4613 91.663 49.8544 91.5776 49.9997 91.2956L49.9997 92.2527C49.9997 92.6543 49.8031 92.9193 49.3075 92.9193L48.8203 92.9193C48.3931 92.9193 48.2478 92.5689 48.2307 92.304L47.7179 92.304C47.735 92.9449 48.1709 93.2696 48.6409 93.2696L49.5297 93.2696C50.0937 93.2696 50.5722 92.9449 50.5722 92.1587L50.5722 87.8858L49.9997 87.8858L49.9997 88.5353C49.8886 88.3131 49.4698 88.1849 49.1195 88.1849L48.6152 88.1849C48.0683 88.1849 47.5897 88.6293 47.5897 89.2189L47.5897 90.6717ZM48.1025 89.3898C48.1025 88.8344 48.4187 88.5609 48.9058 88.5609L49.0596 88.5609C49.4442 88.5609 49.9569 88.7831 49.9569 89.3215L49.9569 90.5435C49.9569 91.0819 49.5809 91.3468 49.1878 91.3468L48.7947 91.3468C48.282 91.3468 48.1025 90.9879 48.1025 90.4666L48.1025 89.3898Z" fill="#000000" fill-rule="nonzero" opacity="1" stroke="none"/>
<path d="M54.3751 91.6716L55.2126 91.6716L55.2126 88.8685L58.1695 88.8685L58.1695 91.6716L58.8361 91.6716L58.8361 85.886L58.1695 85.886L58.1695 88.3643L55.2126 88.3643L55.2126 85.886L54.3751 85.886L54.3751 91.6716Z" fill="#000000" fill-rule="nonzero" opacity="1" stroke="none"/>
<path d="M60.0239 90.5435C60.0239 91.2357 60.494 91.663 61.0153 91.663L61.7587 91.663C62.1433 91.663 62.5706 91.4237 62.6902 91.0905L63.0064 91.7229L63.5705 91.7229C63.2799 91.2785 63.0919 90.7657 63.0919 90.2188L63.0919 87.92L62.5193 87.92L62.5193 88.5694C62.2886 88.1592 61.9468 88.0481 61.4596 88.0481L61.1178 88.0481C60.494 88.0481 60.0239 88.5438 60.0239 89.2018L60.0239 90.5435ZM60.5281 89.2873C60.5281 88.6805 60.9127 88.4071 61.3144 88.4071L61.4938 88.4071C61.9553 88.4071 62.3997 88.7831 62.3997 89.4411L62.3997 90.4324C62.3997 91.0648 62.0237 91.3127 61.5451 91.3127L61.3058 91.3127C60.6307 91.3127 60.5281 90.7743 60.5281 90.4153L60.5281 89.2873Z" fill="#000000" fill-rule="nonzero" opacity="1" stroke="none"/>
<path d="M64.2456 91.6716L64.9549 91.6716L64.9549 89.2702C64.9549 88.8258 65.4249 88.5182 65.9804 88.5182L66.2539 88.5182C66.8948 88.5182 67.211 88.9455 67.211 89.4497L67.211 91.6716L67.6896 91.6716L67.6896 89.3044C67.6896 88.5011 67.1255 87.9798 66.3222 87.9798L65.9975 87.9798C65.4762 87.9798 65.1942 88.0481 64.9549 88.2105L64.9549 87.8003L64.2456 87.8003L64.2456 91.6716Z" fill="#000000" fill-rule="nonzero" opacity="1" stroke="none"/>
<path d="M68.698 90.5692C68.698 91.2528 69.2705 91.6716 69.8431 91.6716L70.3217 91.6716C70.7746 91.6716 71.1506 91.5178 71.2874 91.2699L71.2874 91.6716L71.9027 91.6716L71.9027 85.8946L71.2874 85.8946L71.2874 88.2874C71.0823 87.9712 70.561 87.8858 70.3046 87.8858L69.7406 87.8858C69.2193 87.8858 68.698 88.2703 68.698 88.9284L68.698 90.5692ZM69.1509 89.0907C69.1509 88.484 69.5184 88.2362 70.0055 88.2362L70.3729 88.2362C70.8857 88.2362 71.2275 88.6378 71.2275 89.0309L71.2275 90.4153C71.2275 90.8939 70.8002 91.1845 70.3388 91.1845L70.0055 91.1845C69.3987 91.1845 69.1509 90.8597 69.1509 90.3641L69.1509 89.0907Z" fill="#000000" fill-rule="nonzero" opacity="1" stroke="none"/>
<path d="M72.9111 90.4923C72.9111 91.193 73.4409 91.6716 73.9451 91.6716L74.8339 91.6716C75.227 91.6716 75.8081 91.3554 75.8081 90.6632L75.8081 90.5093L75.415 90.5093L75.415 90.6033C75.415 90.9708 75.1672 91.2785 74.6715 91.2785L74.2015 91.2785C73.5435 91.2785 73.364 90.7828 73.364 90.4324L73.364 89.2702C73.364 88.7916 73.6887 88.5096 74.1588 88.5096L74.5433 88.5096C74.9877 88.5096 75.227 88.7489 75.3295 89.0736L75.7654 89.0053C75.6799 88.5438 75.2355 88.0481 74.6288 88.0481L74.0477 88.0481C73.4495 88.0481 72.9111 88.484 72.9111 89.1249L72.9111 90.4923Z" fill="#000000" fill-rule="nonzero" opacity="1" stroke="none"/>
<path d="M76.7823 91.6716L77.4404 91.6716L77.4404 89.236C78.0044 88.6634 78.9957 88.4498 79.6025 88.4925L79.6025 87.8858C78.7308 87.8772 77.8847 88.2362 77.4404 88.6464L77.4404 87.8943L76.7823 87.8943L76.7823 91.6716Z" fill="#000000" fill-rule="nonzero" opacity="1" stroke="none"/>
<path d="M80.3032 90.5435C80.3032 91.2357 80.7732 91.663 81.2945 91.663L82.038 91.663C82.4226 91.663 82.8499 91.4237 82.9695 91.0905L83.2857 91.7229L83.8497 91.7229C83.5592 91.2785 83.3712 90.7657 83.3712 90.2188L83.3712 87.92L82.7986 87.92L82.7986 88.5694C82.5679 88.1592 82.226 88.0481 81.7389 88.0481L81.3971 88.0481C80.7732 88.0481 80.3032 88.5438 80.3032 89.2018L80.3032 90.5435ZM80.8074 89.2873C80.8074 88.6805 81.192 88.4071 81.5936 88.4071L81.7731 88.4071C82.2346 88.4071 82.679 88.7831 82.679 89.4411L82.679 90.4324C82.679 91.0648 82.3029 91.3127 81.8244 91.3127L81.5851 91.3127C80.91 91.3127 80.8074 90.7743 80.8074 90.4153L80.8074 89.2873Z" fill="#000000" fill-rule="nonzero" opacity="1" stroke="none"/>
<path d="M84.1574 88.6293L84.8838 88.6293L84.8838 91.6716L85.4905 91.6716L85.4905 88.6293L86.422 88.6293L86.422 88.2703L85.4905 88.2703L85.4905 86.9457C85.4905 86.6295 85.6273 86.5441 85.8922 86.5441L86.3195 86.5441L86.3195 86.1424L85.6615 86.1424C85.2513 86.1424 84.8838 86.2962 84.8838 86.8774L84.8838 88.2703L84.1574 88.2703L84.1574 88.6293Z" fill="#000000" fill-rule="nonzero" opacity="1" stroke="none"/>
<path d="M86.8408 88.3729L87.8663 88.3729L87.8663 91.6716L88.5756 91.6716L88.5756 88.3729L89.6096 88.3729L89.6096 87.937L88.5756 87.937L88.5756 85.9886L87.8663 85.9886L87.8663 87.937L86.8408 87.937L86.8408 88.3729Z" fill="#000000" fill-rule="nonzero" opacity="1" stroke="none"/>
</g>
<g opacity="1">
<path d="M30.2812 18C29.6988 17.9459 29.4269 18.5266 29.1562 18.9375C28.945 19.2582 28.7425 19.5856 28.5312 19.9062C27.264 21.8303 25.986 23.7634 24.7188 25.6875C23.4515 27.6116 22.1743 29.5139 20.9062 31.4375C20.6949 31.7581 20.4926 32.0856 20.2812 32.4062C20.0414 32.7701 19.7299 33.1292 19.7812 33.5938C19.8514 34.2283 20.4706 34.5678 20.9375 34.9062C22.0004 35.6767 23.1105 36.4396 24.1562 37.25C24.1332 37.3171 24.1158 37.4013 24.0938 37.4688C24.0221 37.6884 23.9691 37.8699 23.9062 38.0938C23.7001 38.8278 23.5555 39.5857 23.4688 40.3438C23.2202 42.5172 23.6753 44.7759 24.125 46.9062C24.1823 47.1779 24.4471 47.3698 24.7188 47.3125C24.9904 47.2552 25.1511 46.9904 25.0938 46.7188C24.6671 44.6969 24.2313 42.4998 24.4688 40.4375C24.5627 39.6217 24.7297 38.8161 24.9688 38.0312C25.0866 37.6443 25.3252 37.3245 25.25 36.9062C25.1985 36.6196 24.1622 35.9983 23.9062 35.8125C23.5139 35.5277 23.1111 35.2223 22.7188 34.9375C22.3264 34.6527 21.9236 34.3786 21.5312 34.0938C20.7232 33.5072 20.6143 33.7424 21.125 32.9688C21.3365 32.6483 21.5385 32.3205 21.75 32C21.9615 31.6795 22.1947 31.3517 22.4062 31.0312C22.6178 30.7108 22.8197 30.4142 23.0312 30.0938C24.7241 27.5304 26.4004 24.9692 28.0938 22.4062C28.7288 21.4451 29.365 20.4611 30 19.5C30.066 19.4001 30.1528 19.3186 30.2188 19.2188C30.2721 19.3008 30.3216 19.3867 30.375 19.4688C30.5917 19.8019 30.8151 20.1365 31.0312 20.4688C31.4484 21.1101 31.8641 21.7649 32.2812 22.4062C33.9499 24.9717 35.6122 27.5286 37.2812 30.0938C38.0008 31.1996 38.9073 32.3059 39.5 33.5C39.5317 33.5639 38.9895 33.8857 38.875 33.9688C38.4395 34.2845 37.998 34.6218 37.5625 34.9375C37.17 35.2221 36.7988 35.4966 36.4062 35.7812C36.1462 35.9698 35.084 36.6125 35.0312 36.9062C34.939 37.4196 35.2753 37.9088 35.4062 38.375C35.5976 39.0562 35.7317 39.7341 35.8125 40.4375C36.0491 42.4971 35.6128 44.6748 35.1875 46.6875C35.127 46.9744 35.3069 47.2832 35.5938 47.3438C35.8806 47.4043 36.1582 47.1931 36.2188 46.9062C36.6673 44.7786 37.1244 42.5202 36.875 40.3438C36.788 39.5843 36.613 38.8291 36.4062 38.0938C36.3297 37.8214 36.2788 37.549 36.1875 37.2812C37.2347 36.4851 38.3137 35.7076 39.375 34.9375C39.8771 34.5732 40.5671 34.2079 40.5625 33.5C40.5598 33.0827 40.2803 32.7402 40.0625 32.4062C39.8535 32.0858 39.6465 31.7579 39.4375 31.4375C39.2285 31.1171 39.0215 30.7892 38.8125 30.4688C37.5586 28.5463 36.2854 26.6411 35.0312 24.7188C33.9861 23.1168 32.9515 21.5081 31.9062 19.9062C31.6972 19.5859 31.4903 19.2579 31.2812 18.9375C31.0347 18.5596 30.787 18.047 30.2812 18Z" fill="#000000" stroke="none"/>
</g>
<g opacity="1">
<path d="M30.1593 50.111C30.1593 47.9952 31.8923 46.28 34.03 46.28C36.1677 46.28 37.9007 47.9952 37.9007 50.111C37.9007 52.2269 36.1677 53.9421 34.03 53.9421C31.8923 53.9421 30.1593 52.2269 30.1593 50.111Z" fill="#000000" fill-rule="nonzero" opacity="1" stroke="none"/>
<path d="M34.0938 48.625C33.964 48.5063 33.775 48.5265 33.6562 48.6562C33.1511 49.5543 33.1015 49.6657 33.1562 49.5625C33.2115 49.4583 33.324 49.1269 33.25 49.2188C33.1054 49.3983 33.0056 49.6235 32.9375 49.8438C32.903 49.9553 32.6563 50.4688 32.6562 50.4688C32.6562 50.4688 33.4603 49.7089 33.375 49.7812C33.2896 49.8536 33.0176 50.0508 33.0938 49.9688C33.2449 49.8059 33.4396 49.6538 33.625 49.5312C33.7183 49.4696 33.6132 49.5308 34.125 49.0938C34.2437 48.964 34.2235 48.7437 34.0938 48.625Z" fill="#ffffff" fill-rule="nonzero" opacity="1" stroke="none"/>
<path d="M35.8125 49.625C35.8125 49.625 34.8902 50.6553 35.0625 50.4688C35.2336 50.2834 35.4117 50.0972 35.5312 49.875C35.5909 49.7642 35.3399 50.037 35.25 50.125C35.1427 50.23 34.8142 50.542 34.7188 50.6562C34.636 50.7553 34.39 51.0362 34.5 50.9688C34.7165 50.836 34.4763 50.9702 34.2812 51.3125C34.2047 51.4709 34.2791 51.6735 34.4375 51.75C34.5959 51.8265 34.7985 51.7521 34.875 51.5938C35.3486 50.6022 35.4421 50.3764 35.3438 50.5938C35.2447 50.8128 35.1384 51.0535 35 51.25C34.9312 51.3476 35.0833 51.0181 35.125 50.9062C35.2292 50.6265 35.2648 50.5138 35.4062 50.25C35.4642 50.1418 35.6188 49.8173 35.5938 49.9375C35.5451 50.1711 35.8125 49.625 35.8125 49.625Z" fill="#ffffff" fill-rule="nonzero" opacity="1" stroke="none"/>
</g>
<g opacity="1">
<path d="M18.5125 50.6514C17.5221 50.5215 17.7987 46.2549 17.7987 46.2549C17.8009 45.5352 18.0393 45.1208 18.7234 45.1333C19.5258 45.1481 20.2864 45.0924 20.6538 45.4768C21.0212 45.8612 19.6357 61.3259 20.6375 61.3906C21.4474 61.443 21.5324 55.7227 21.6929 54.0843C21.726 53.7466 22.6034 54.1047 22.6034 54.1047C22.8773 55.4191 22.033 62.2334 21.4669 62.3655C20.8339 62.5131 20.4446 62.7209 19.6577 62.1985C18.8176 61.6408 20.2716 46.4485 19.5336 46.3712C18.3847 46.2508 19.3386 50.7598 18.5125 50.6514Z" fill="#000000" fill-rule="nonzero" opacity="1" stroke="none"/>
<path d="M26.277 54.0361C26.4667 54.0549 26.3112 57.1104 26.0469 59.8625C25.8573 61.8361 25.7493 63.772 25.3993 64.0578C24.8937 64.4707 23.5899 64.4857 23.5033 63.7371C23.4352 63.1487 23.8455 63.279 24.6499 63.281C25.2058 63.2825 25.0511 60.8767 25.1279 59.8157C25.2996 57.4425 25.1627 55.0729 25.2031 54.5928C25.2616 53.8979 25.4499 53.9539 26.277 54.0361Z" fill="#000000" fill-rule="nonzero" opacity="1" stroke="none"/>
<path d="M28.0664 53.9362C28.2561 53.9577 28.1006 57.4389 27.8363 60.5745C27.6468 62.823 27.5387 65.0287 27.1887 65.3543C26.6831 65.8247 25.3793 65.8418 25.2927 64.9889C25.2246 64.3185 25.6349 64.467 26.4393 64.4693C26.9952 64.4709 26.8405 61.73 26.9173 60.5211C27.089 57.8172 26.9521 55.1175 26.9925 54.5704C27.051 53.7788 27.2393 53.8425 28.0664 53.9362Z" fill="#000000" fill-rule="nonzero" opacity="1" stroke="none"/>
<path d="M29.8096 53.849C29.9994 53.8728 29.8439 57.7318 29.5796 61.2077C29.39 63.7002 29.282 66.1453 28.932 66.5063C28.4264 67.0277 27.1226 67.0467 27.036 66.1012C26.9678 65.358 27.3782 65.5226 28.1826 65.5252C28.7385 65.527 28.5838 62.4886 28.6605 61.1485C28.8323 58.1512 28.6954 55.1585 28.7358 54.5521C28.7943 53.6745 28.9825 53.7452 29.8096 53.849Z" fill="#000000" fill-rule="nonzero" opacity="1" stroke="none"/>
<path d="M24.4062 54.0753C24.5858 54.0924 24.4386 56.8724 24.1885 59.3762C24.0091 61.1718 23.9069 62.9331 23.5757 63.1932C23.0973 63.5688 21.8635 63.5824 21.7816 62.9013C21.7171 62.366 22.1054 62.4845 22.8665 62.4864C23.3926 62.4877 23.2462 60.2989 23.3188 59.3336C23.4814 57.1745 23.3518 55.0186 23.39 54.5818C23.4454 53.9496 23.6235 54.0005 24.4062 54.0753Z" fill="#000000" fill-rule="nonzero" opacity="1" stroke="none"/>
</g>
<g opacity="1">
<path d="M41.7847 50.6514C42.7751 50.5215 42.4985 46.2549 42.4985 46.2549C42.4963 45.5352 42.2579 45.1208 41.5739 45.1333C40.7714 45.1481 40.0108 45.0924 39.6434 45.4768C39.276 45.8612 40.6615 61.3259 39.6597 61.3906C38.8498 61.443 38.7649 55.7227 38.6044 54.0843C38.5713 53.7466 37.6938 54.1047 37.6938 54.1047C37.42 55.4191 38.2642 62.2334 38.8304 62.3655C39.4633 62.5131 39.8526 62.7209 40.6395 62.1985C41.4796 61.6408 40.0256 46.4485 40.7636 46.3712C41.9125 46.2508 40.9586 50.7598 41.7847 50.6514Z" fill="#000000" fill-rule="nonzero" opacity="1" stroke="none"/>
<path d="M34.0203 54.0361C33.8305 54.0549 33.986 57.1104 34.2503 59.8625C34.4399 61.8361 34.5479 63.772 34.8979 64.0578C35.4035 64.4707 36.7073 64.4857 36.794 63.7371C36.8621 63.1487 36.4517 63.279 35.6473 63.281C35.0914 63.2825 35.2462 60.8767 35.1694 59.8157C34.9976 57.4425 35.1345 55.0729 35.0941 54.5928C35.0356 53.8979 34.8474 53.9539 34.0203 54.0361Z" fill="#000000" fill-rule="nonzero" opacity="1" stroke="none"/>
<path d="M32.2308 53.9362C32.0411 53.9577 32.1966 57.4389 32.4609 60.5745C32.6505 62.823 32.7585 65.0287 33.1085 65.3543C33.6141 65.8247 34.9179 65.8418 35.0045 64.9889C35.0726 64.3185 34.6623 64.467 33.8579 64.4693C33.302 64.4709 33.4567 61.73 33.38 60.5211C33.2082 57.8172 33.3451 55.1175 33.3047 54.5704C33.2462 53.7788 33.0579 53.8425 32.2308 53.9362Z" fill="#000000" fill-rule="nonzero" opacity="1" stroke="none"/>
<path d="M30.4876 53.849C30.2978 53.8728 30.4533 57.7318 30.7176 61.2077C30.9072 63.7002 31.0152 66.1453 31.3653 66.5063C31.8708 67.0277 33.1746 67.0467 33.2613 66.1012C33.3294 65.358 32.919 65.5226 32.1147 65.5252C31.5587 65.527 31.7135 62.4886 31.6367 61.1485C31.4649 58.1512 31.6018 55.1585 31.5614 54.5521C31.5029 53.6745 31.3147 53.7452 30.4876 53.849Z" fill="#000000" fill-rule="nonzero" opacity="1" stroke="none"/>
<path d="M35.891 54.0753C35.7115 54.0924 35.8586 56.8724 36.1087 59.3762C36.2881 61.1718 36.3903 62.9331 36.7216 63.1932C37.2 63.5688 38.4337 63.5824 38.5157 62.9013C38.5801 62.366 38.1918 62.4845 37.4307 62.4864C36.9046 62.4877 37.051 60.2989 36.9784 59.3336C36.8159 57.1745 36.9454 55.0186 36.9072 54.5818C36.8518 53.9496 36.6737 54.0005 35.891 54.0753Z" fill="#000000" fill-rule="nonzero" opacity="1" stroke="none"/>
</g>
<g opacity="1">
<path d="M22.4067 50.1139C22.4067 47.9981 24.1397 46.2829 26.2774 46.2829C28.4151 46.2829 30.1481 47.9981 30.1481 50.1139C30.1481 52.2298 28.4151 53.945 26.2774 53.945C24.1397 53.945 22.4067 52.2298 22.4067 50.1139Z" fill="#000000" fill-rule="nonzero" opacity="1" stroke="none"/>
<path d="M28.0625 49.625C28.0625 49.625 27.1402 50.6553 27.3125 50.4688C27.4836 50.2834 27.6305 50.0972 27.75 49.875C27.8096 49.7642 27.5899 50.037 27.5 50.125C27.3927 50.23 27.0642 50.5732 26.9688 50.6875C26.886 50.7866 26.64 51.0362 26.75 50.9688C26.9665 50.836 26.7263 50.9702 26.5312 51.3125C26.4547 51.4709 26.5291 51.6735 26.6875 51.75C26.8459 51.8265 27.0485 51.7521 27.125 51.5938C27.5986 50.6022 27.6921 50.3764 27.5938 50.5938C27.4947 50.8128 27.3884 51.0535 27.25 51.25C27.1812 51.3476 27.3334 51.0181 27.375 50.9062C27.4792 50.6265 27.5148 50.5138 27.6562 50.25C27.7142 50.1418 27.8688 49.8173 27.8438 49.9375C27.7951 50.1711 28.0625 49.625 28.0625 49.625Z" fill="#ffffff" fill-rule="nonzero" opacity="1" stroke="none"/>
<g opacity="1">
<path d="M26.1367 48.8778C25.6635 49.371 25.2433 49.8739 24.8915 50.4588" fill="#ffffff" fill-rule="nonzero" opacity="1" stroke="none"/>
<path d="M25.9062 48.6562C25.4011 49.5543 25.3515 49.6657 25.4062 49.5625C25.4615 49.4583 25.574 49.1269 25.5 49.2188C25.3554 49.3983 25.2556 49.6235 25.1875 49.8438C25.153 49.9553 24.9062 50.4688 24.9062 50.4688C24.9062 50.4688 25.7103 49.7089 25.625 49.7812C25.5396 49.8536 25.2676 50.0508 25.3438 49.9688C25.4949 49.8059 25.6896 49.6538 25.875 49.5312C25.9683 49.4696 25.8632 49.5308 26.375 49.0938C26.4937 48.964 26.4735 48.775 26.3438 48.6562C26.214 48.5375 26.025 48.5265 25.9062 48.6562Z" fill="#ffffff" fill-rule="nonzero" opacity="1" stroke="none"/>
</g>
</g>
</g>
</g>
</svg>
